<svg xmlns="http://www.w3.org/2000/svg" xmlns:xlink="http://www.w3.org/1999/xlink" xmlns:lucid="lucid" width="2524.63" height="1222"><g transform="translate(281 -1059)" lucid:page-tab-id="0_0"><path d="M-500 1000h3000v1500H-500z" fill="#fff"/><path d="M771 1566a6 6 0 0 1 6-6h854a6 6 0 0 1 6 6v248a6 6 0 0 1-6 6H777a6 6 0 0 1-6-6z" stroke="#000" stroke-width="2" fill-opacity="0"/><path d="M-120 1387.33H24.9" stroke="#3a414a" fill="none"/><path d="M-120 1387.8h-.52l.02-.47-.02-.47h.53z" stroke="#3a414a" stroke-width=".05" fill="#3a414a"/><path d="M39.66 1387.33l-14.26 4.64v-9.27z" stroke="#3a414a" fill="#3a414a"/><path d="M40 1336.33h128V1381H40v-44.67z" stroke="#000" stroke-opacity="0" fill="#aecbfa"/><path d="M155.2 1336.33H168V1381h-12.8v-44.67z" stroke="#000" stroke-opacity="0" fill="#669df6"/><path d="M168 1336.33h-12.8V1381l12.8-44.67z" stroke="#000" stroke-opacity="0" fill="#4285f4"/><path d="M40 1336.33h12.8V1381H40v-44.67z" stroke="#000" stroke-opacity="0" fill="#669df6"/><path d="M65.6 1355.5H104v6.38H65.6v-6.37zM132.8 1349.08c6.4 0 9.6 3.2 9.6 9.6 0 6.38-3.2 9.58-9.6 9.58-6.4 0-9.6-3.2-9.6-9.6 0-6.37 3.2-9.58 9.6-9.58z" stroke="#000" stroke-opacity="0" fill="#fff"/><path d="M40 1393.76h128v44.68H40v-44.68z" stroke="#000" stroke-opacity="0" fill="#aecbfa"/><path d="M155.2 1393.76H168v44.68h-12.8v-44.68z" stroke="#000" stroke-opacity="0" fill="#669df6"/><path d="M168 1393.76h-12.8v44.68l12.8-44.68z" stroke="#000" stroke-opacity="0" fill="#4285f4"/><path d="M40 1393.76h12.8v44.68H40v-44.68z" stroke="#000" stroke-opacity="0" fill="#669df6"/><path d="M65.6 1412.83H104v6.38H65.6v-6.37zM132.8 1406.5c6.4 0 9.6 3.2 9.6 9.6 0 6.38-3.2 9.6-9.6 9.6-6.4 0-9.6-3.22-9.6-9.6 0-6.4 3.2-9.6 9.6-9.6z" stroke="#000" stroke-opacity="0" fill="#fff"/><path d="M41.28 1337.35v99.96h125.44v-99.95z" stroke="#000" stroke-opacity="0" fill-opacity="0"/><use xlink:href="#a" transform="matrix(1,0,0,1,40,1443.334050950015) translate(14.824652777777771 20.616319444444443)"/><use xlink:href="#b" transform="matrix(1,0,0,1,40,1443.334050950015) translate(63.11024305555555 20.616319444444443)"/><use xlink:href="#c" transform="matrix(1,0,0,1,40,1443.334050950015) translate(13.343532986111114 51.86631944444444)"/><use xlink:href="#d" transform="matrix(1,0,0,1,40,1443.334050950015) translate(60.63085937500001 51.86631944444444)"/><path d="M500 1336.33h128V1381H500v-44.67z" stroke="#000" stroke-opacity="0" fill="#aecbfa"/><path d="M615.2 1336.33H628V1381h-12.8v-44.67z" stroke="#000" stroke-opacity="0" fill="#669df6"/><path d="M628 1336.33h-12.8V1381l12.8-44.67z" stroke="#000" stroke-opacity="0" fill="#4285f4"/><path d="M500 1336.33h12.8V1381H500v-44.67z" stroke="#000" stroke-opacity="0" fill="#669df6"/><path d="M525.6 1355.5H564v6.38h-38.4v-6.37zM592.8 1349.08c6.4 0 9.6 3.2 9.6 9.6 0 6.38-3.2 9.58-9.6 9.58-6.4 0-9.6-3.2-9.6-9.6 0-6.37 3.2-9.58 9.6-9.58z" stroke="#000" stroke-opacity="0" fill="#fff"/><path d="M500 1393.76h128v44.68H500v-44.68z" stroke="#000" stroke-opacity="0" fill="#aecbfa"/><path d="M615.2 1393.76H628v44.68h-12.8v-44.68z" stroke="#000" stroke-opacity="0" fill="#669df6"/><path d="M628 1393.76h-12.8v44.68l12.8-44.68z" stroke="#000" stroke-opacity="0" fill="#4285f4"/><path d="M500 1393.76h12.8v44.68H500v-44.68z" stroke="#000" stroke-opacity="0" fill="#669df6"/><path d="M525.6 1412.83H564v6.38h-38.4v-6.37zM592.8 1406.5c6.4 0 9.6 3.2 9.6 9.6 0 6.38-3.2 9.6-9.6 9.6-6.4 0-9.6-3.22-9.6-9.6 0-6.4 3.2-9.6 9.6-9.6z" stroke="#000" stroke-opacity="0" fill="#fff"/><path d="M501.28 1337.35v99.96h125.44v-99.95z" stroke="#000" stroke-opacity="0" fill-opacity="0"/><use xlink:href="#e" transform="matrix(1,0,0,1,500,1443.334050950015) translate(42.60785590277778 20.616319444444443)"/><use xlink:href="#f" transform="matrix(1,0,0,1,500,1443.334050950015) translate(7.891059027777779 51.86631944444444)"/><use xlink:href="#g" transform="matrix(1,0,0,1,500,1443.334050950015) translate(25.39322916666667 83.11631944444443)"/><use xlink:href="#d" transform="matrix(1,0,0,1,500,1443.334050950015) translate(36.98719618055556 114.36631944444443)"/><path d="M1170.2 1379.78v16.8c2.8 4.77 6.2 8.26 10.95 11.1v-27.9z" stroke="#000" stroke-opacity="0" fill="#aecbfa"/><path d="M1190.43 1364.3v48.15c2.47.3 4.6.43 7.07.4 2.23.13 4.14.13 6.37 0v-48.56z" stroke="#000" stroke-opacity="0" fill="#669df6"/><path d="M1214.5 1386.44v21c4.77-3.05 8.17-6.66 10.88-11.62v-9.38z" stroke="#000" stroke-opacity="0" fill="#aecbfa"/><path d="M1240.75 1415.03l-9.05 9.06-.04.03c-1.04 1.07-1.04 2.78.04 3.82l22.6 22.6c1.04 1.04 2.75 1.04 3.8 0l9.12-9.13c1.04-1.04 1.04-2.74 0-3.78l-22.6-22.6-.04-.05c-1.08-1.05-2.8-1.05-3.83.03" stroke="#000" stroke-opacity="0" fill="#4285f4"/><path d="M1197.6 1323.33c-31.8 0-57.6 25.8-57.6 57.6s25.8 57.6 57.6 57.6 57.6-25.8 57.6-57.6-25.8-57.6-57.6-57.6m0 100.46c-23.62-.13-42.74-19.25-42.74-42.87.12-23.6 19.24-42.74 42.86-42.74 23.6.1 42.62 19.12 42.73 42.73 0 23.62-19.12 42.74-42.74 42.86h-.1" stroke="#000" stroke-opacity="0" fill="#669df6"/><use xlink:href="#h" transform="matrix(1,0,0,1,1140,1456.334050950015) translate(20.711154513888886 20.616319444444443)"/><path d="M1383.8 1625.8a7.8 7.8 0 0 1 7.53-5.8H1522a4.6 4.6 0 0 1 4.45 5.8l-34.24 128.4a7.8 7.8 0 0 1-7.53 5.8H1354a4.6 4.6 0 0 1-4.45-5.8z" stroke="#000" stroke-width="2" fill="#fff"/><use xlink:href="#i" transform="matrix(1,0,0,1,1353,1625) translate(28.266718750000006 74.34027777777777)"/><path d="M1149.8 1625.8a7.8 7.8 0 0 1 7.53-5.8H1288a4.6 4.6 0 0 1 4.45 5.8l-34.24 128.4a7.8 7.8 0 0 1-7.53 5.8H1120a4.6 4.6 0 0 1-4.45-5.8z" stroke="#000" stroke-width="2" fill="#fff"/><use xlink:href="#j" transform="matrix(1,0,0,1,1119,1625) translate(22.65842881944445 58.09027777777778)"/><use xlink:href="#k" transform="matrix(1,0,0,1,1119,1625) translate(33.72223090277778 90.35590277777777)"/><path d="M627.22 1387.33h496.8" stroke="#3a414a" fill="none"/><path d="M627.23 1387.8h-.5v-.94h.5z" stroke="#3a414a" stroke-width=".05" fill="#3a414a"/><path d="M1138.78 1387.33l-14.27 4.64v-9.27z" stroke="#3a414a" fill="#3a414a"/><path d="M915.8 1625.8a7.8 7.8 0 0 1 7.53-5.8H1054a4.6 4.6 0 0 1 4.45 5.8l-34.24 128.4a7.8 7.8 0 0 1-7.53 5.8H886a4.6 4.6 0 0 1-4.45-5.8z" stroke="#000" stroke-width="2" fill="#fff"/><use xlink:href="#l" transform="matrix(1,0,0,1,885,1625) translate(47.457690972222224 58.09027777777778)"/><use xlink:href="#m" transform="matrix(1,0,0,1,885,1625) translate(52.88455729166667 90.35590277777777)"/><path d="M532.32 1683.98l.07.88.2.85.32.8.46.75.56.66.66.57.74.45.8.33.84.2.88.08h343.4v.94H537.8l-1-.07-.98-.24-.94-.4-.86-.52-.78-.66-.66-.77-.53-.86-.4-.94-.22-1-.08-.98v-119.94h.95zm0-238.65h-.95v-7.52h.95z" stroke="#3a414a" stroke-width=".05" fill="#3a414a"/><path d="M532.32 1437.3h-.95v-3h.95z" fill="#3a414a"/><path stroke="#3a414a" stroke-width=".05" fill="#3a414a"/><path d="M896 1690l-14.25 4.63v-9.27z" fill="#3a414a"/><path d="M897.55 1690l-16.28 5.3v-10.6zm-15.33 3.98l12.26-3.98-12.26-3.98z" stroke="#3a414a" stroke-width=".05" fill="#3a414a"/><path d="M1204.06 1903.86c.9.57 1.78 1.14 2.97 1.6 2.08 1.35 4.45 2.6 6.83 3.96l2.67 1.7c.3.12.6.35 1.2.58.88.56 1.77 1.13 2.66 1.58 2.37 1.48 4.74 2.84 7.12 4.2 1.5.8 2.67 1.6 4.16 2.4 1.78 1 3.56 2.15 5.64 3.28 1.78 1.14 3.86 2.27 5.94 3.4 1.2.8 2.67 1.7 4.16 2.5.6.23.9.57 1.48.8 2.08 1.25 4.16 2.6 6.54 3.86-1.5-6.02-3.57-10.33-8.02-14.53l-.9-1.03c2.68-1.6 5.35-3.07 8.03-4.66.6-.44 1.48-.9 2.37-1.35 3.86-2.27 8.02-4.54 11.88-6.93.6-.22.9-.45 1.2-.68 7.7-4.3 7.7-4.3 10.1-4.54h.3c3.55-.1 6.82 1.48 9.2 3.75 0 .1.3.22.3.34 2.66 2.14 5.34 5.32 5.63 8.84.3 5.57-3.56 10.34-6.23 15-.9 1.13-1.5 2.26-2.08 3.28-1.2 2.05-2.38 3.98-3.57 5.9-.3.58-.6 1.03-.9 1.48 0 .46-.3.9-.58 1.25-.3.23-.3.46-.3.68-.9 1.14-1.48 2.4-2.38 3.52-3.27 5.45-5.05 11.02-3.57 17.5.6 3.4 2.38 6.23 4.16 9.07l.88 1.7c.3.12.3.35.3.46 3.26 5 5.94 10.1 8.9 15.2.3.47.6.8.9 1.15.6 1.02.9 2.04 1.48 3.06.3.34.6.56.6.9 1.78 2.84 2.67 5.57 2.08 8.97-.6 2.16-1.8 3.98-3.27 5.8-.3.1-.3.33-.6.45-1.18 1.47-2.67 2.72-4.45 3.86l-.3.1c-1.18.8-2.08 1.15-3.56 1.26h-2.67c-2.1 0-3.28-.34-5.06-1.36 0-.12-.3-.23-.6-.46-.3-.1-.3-.22-.6-.34-.3-.1-.6-.34-.88-.45 0-.12-.3-.12-.3-.23-.9-.57-1.78-1.02-2.67-1.48-.3-.1-.3-.22-.6-.34-.3-.22-.9-.45-1.2-.68-.88-.57-2.07-1.13-2.96-1.7-.3-.23-.6-.45-1.2-.68l-30.3-17.26c-.28-.23-.88-.45-1.17-.68-.9-.57-1.8-1.14-2.97-1.6l-.9-.67c-.3-.1-.6-.22-.6-.33-1.18-.57-2.07-1.14-3.26-1.7 0-.12-.3-.23-.3-.23-.6-.34-1.18-.57-1.48-.9-1.2-.58-2.08-1.15-3.26-1.83.6 5.35 3.86 11.14 8 14.55 0 .1 0 .1.3.22 0 .12.3.23.3.46V1996.27c-2.07 1.15-4.15 2.28-6.23 3.42-1.48.78-2.67 1.58-4.16 2.37l-.28.12c-.6.33-1.2.55-1.5.9-1.18.56-2.07 1.13-3.26 1.8l-.3.12c-1.78.9-3.26 1.93-5.04 2.84-1.5.9-3.27 1.93-4.75 2.84-.3.1-.6.23-.6.34-.3.12-.6.23-.6.34-.6.12-.88.34-1.18.57-.3.1-.3.23-.6.34-.3.1-.3.22-.6.33-.9.57-2.08.8-3.26.9H1193.65c-3.56.12-6.24-1.8-8.6-4.2-2.68-2.38-4.76-5.33-4.76-8.85v-.45-.46c0-2.15.9-3.97 1.78-5.8.3-.2.3-.44.3-.55.3-.68.9-1.25 1.18-1.82 0-.1 0-.34.3-.46.3-.9.9-1.8 1.5-2.72.58-.8.88-1.7 1.47-2.5 1.2-2.27 2.67-4.54 3.86-6.8l.88-1.7c1.2-1.94 2.38-3.87 3.57-5.7.3-.8.9-1.47 1.18-2.26l.9-1.36c2.67-4.55 3.86-10 2.67-15.22 0-.45-.3-.8-.3-1.25 0-.1-.3-.34-.3-.56-1.18-3.4-3.26-6.48-5.04-9.54-.9-1.36-1.5-2.6-2.38-3.98-.6-1.24-1.2-2.38-2.08-3.63-.6-1.25-1.2-2.38-1.78-3.63-.9-1.26-1.78-2.62-2.38-4-6.23-10.54-6.23-10.54-5.05-14.97 1.18-4.2 4.45-7.5 8.3-9.65 5.65-2.96 10.1-.46 15.16 2.38zm31.78 43.6c-.3.23-.3.34-.6.45v.24c-.3.34-.6.57-.9.8-.3.22-.3.45-.58.56-.3.46-.9.8-1.2 1.25-.6.46-.88.9-1.48 1.48-.3.34-.9.68-1.18 1.13-.3.12-.3.34-.6.57-.3.23-.6.45-.6.68-.3.24-.3.35-.6.47-.58.68-.58 1.13-.58 1.93-.3.1-.3.22-.3.34.3.9 1.2 1.7 1.8 2.38 0 0 0 .12.28.23.3.23.3.45.6.8.3.1.6.33.6.45.58.45.88.8 1.18 1.13.6.57.9 1.03 1.48 1.48.3.46.9.8 1.2 1.14.3.23.3.35.6.57.28.24.28.47.58.8.3.12.3.23.6.35.6.45.88.56 1.48.56h.6c.88-.1 1.48-.67 2.37-1.35.3-.22.3-.22.3-.45.28-.23.58-.34.58-.57.3-.1.3-.34.6-.57.3-.34.88-.68 1.18-1.13.6-.46.9-.9 1.5-1.37.28-.45.58-.8 1.17-1.13 0-.23.3-.34.3-.57.3-.22.6-.45.9-.8.3-.22.3-.22.6-.33.28-.57.58-1.03.58-1.7v-.46-.34c-.58-1.36-1.77-2.27-2.66-3.3-.3-.1-.3-.33-.6-.45-.3-.34-.6-.8-.9-1.13-.58-.46-1.18-.9-1.47-1.37-.3-.34-.9-.68-1.2-1.02 0-.23-.3-.34-.6-.57-1.17-1.25-1.17-1.25-2.66-2.05-.88 0-1.77.34-2.36.9z" stroke="#000" stroke-opacity="0" stroke-width=".3" fill="#fe6703"/><path d="M1370.38 1915.56v73.8h-13.96v-7.72h-.6v.33c-.3.7-.9 1.14-1.18 1.6-.3.1-.3.22-.3.34-3.27 3.64-7.43 5.57-12.47 5.9-6.54.35-12.18-1.24-17.23-5.55-3.86-3.52-6.24-8.07-7.43-12.95v-.57c-.58-2.5-.88-5-.88-7.5v-.44c0-8.2 2.68-15.45 8.62-21.24 4.45-4.1 10.4-5.8 16.33-5.57 4.75.22 8.9 2.04 12.47 5.44.6.68 1.2 1.48 1.5 2.27.3.24.58.58.88.8h.3v-.33c-.3-2.96-.3-5.8-.3-8.75v-1.36-3.4-3.52-6.82c.3-.1.3-.22.6-.22l8.9-2.96c.3-.1.6-.22.9-.34.3-.1.6-.22 1.18-.45.3-.1.6-.23 1.2-.34 0-.1 0-.1.3-.1.88-.35.88-.35 1.18-.35zm-36.24 37.12c-2.37 2.73-3.56 6.13-3.56 9.65v.46c0 3.73.9 7.7 3.56 10.66 0 .1 0 .23.3.34 2.38 2.38 5.35 3.4 8.6 3.52 3.58 0 7.14-1.13 9.52-3.52 2.97-3.07 4.15-7.04 3.86-11.24 0-3.63-1.2-7.27-3.57-10-.3-.1-.3-.22-.3-.33-2.07-2.27-5.04-3.4-8-3.63-4.17-.12-7.73 1.13-10.4 4.08zM1395.33 1915.56v20.22c0 3.06 0 6-.3 9.08.3.1.3.1.6.23 0-.12.3-.23.3-.46.3-.57.58-1.13 1.18-1.6v-.33c2.68-3.08 5.95-5.23 9.8-6.25.3 0 .3 0 .6-.12 5.64-1.13 11.6 0 16.34 3.07 2.08 1.36 4.15 3.06 5.64 5.1 0 .12 0 .12.3.35 2.67 3.63 4.15 8.06 5.05 12.6v.34c1.18 7.6 0 16.34-4.76 22.8-3.56 5-8.9 8.2-15.14 9.1-5.05.56-10.7.1-15.15-3.07-1.48-1.36-2.97-2.84-4.16-4.66v-.34c0 .12-.3.12-.6.23v7.5h-13.65v-69.04c13.66-4.76 13.66-4.76 13.96-4.76zm2.97 37.7c-2.97 3.5-3.57 8.05-3.27 12.48.6 3.07 1.78 6.36 4.16 8.4 3.25 2.5 6.82 3.52 10.97 3.07 3.27-.56 6.24-2.15 8.02-4.76 2.67-3.52 3.26-7.95 2.67-12.15-.6-3.87-2.38-7.28-5.65-9.55-5.34-3.74-12.77-2.38-16.92 2.5zM1458.6 1920.32v17.03h11.57v12.38h-11.58v26.68h10.08V1989.38h-10.4c-3.56 0-7.12-.57-10.1-3.18-2.66-2.96-3.55-6.6-3.55-10.68v-.8-2.26-2.4-4.53c0-1.7 0-3.4.3-5.1v-10.67h-8.32v-12.38h8.92v-5.67c-.3-2.27-.3-4.54-.3-6.93 2.08-.8 4.16-1.47 5.94-2.16.6-.12 1.2-.35 1.5-.46.58-.1.88-.23 1.17-.34.6-.23 1.5-.57 2.38-.8l.3-.1.9-.35c.3-.1.9-.23 1.2-.23zM1475.8 1984.36c.6.45.9.68 1.2 1.25 0 .92 0 1.83-.3 2.62-.6.9-1.48 1.25-2.37 1.36-.9-.1-1.78-.34-2.38-1.02-.6-.8-.6-1.7-.6-2.72.3-.8.9-1.25 1.5-1.7 1.18-.35 2.07-.35 2.96.22zm-3.55 1.13c-.3.68-.3 1.24 0 1.92.3.57.3.9.9 1.25.88.23 1.47.23 2.07-.1.6-.35.9-.7 1.2-1.37 0-.8 0-1.36-.6-1.93-.6-.68-.9-.68-1.8-.68-.88.1-1.18.44-1.77.9z" stroke="#000" stroke-opacity="0" stroke-width=".3"/><path d="M1473.14 1985.27h1.48c.3 0 .3 0 .6.34.3.46.3.46 0 .92-.3.34-.3.34-.3.57 0 .2 0 .2.3.44.3.34.3.34.3.57h-.9l-.6-.67v.68h-.88v-2.83zm.9.57v.56h.58c0-.22 0-.34-.3-.56h-.3z" stroke="#000" stroke-opacity="0" stroke-width=".3"/><path d="M167.22 1387.33h106.7" stroke="#3a414a" fill="none"/><path d="M167.23 1387.8h-.5v-.94h.5z" stroke="#3a414a" stroke-width=".05" fill="#3a414a"/><path d="M288.7 1387.33l-14.27 4.64v-9.27z" stroke="#3a414a" fill="#3a414a"/><path d="M399 1387.33h85.9" stroke="#3a414a" fill="none"/><path d="M399.02 1387.8h-.63l.22-.94h.4z" stroke="#3a414a" stroke-width=".05" fill="#3a414a"/><path d="M499.66 1387.33l-14.26 4.64v-9.27z" stroke="#3a414a" fill="#3a414a"/><g fill="none"><path d="M1514 1840a6 6 0 0 1 6 6v76.67a6 6 0 0 1-6 6h-388a6 6 0 0 1-6-6V1846a6 6 0 0 1 6-6z"/><path d="M1120 1840c0 5.52 4.48 10 10 10h180c5.52 0 10 4.48 10 10 0-5.52 4.48-10 10-10h180c5.52 0 10-4.48 10-10" stroke="#000" stroke-width="2"/></g><path d="M2159.55 1626c-6.42 0-11.22 4.83-11.22 11.25 0 2.13.55 4.27 2.13 6.42l4.82-4.83v-1.6c0-2.67 2.12-4.82 4.8-4.82 2.66 0 4.8 2.15 4.8 4.83 0 2.66-2.14 4.8-4.8 4.8h-1.6l-4.8 4.28c5.33 3.2 12.27 2.15 15.46-3.2 3.2-5.35 2.14-12.3-3.2-15.5-1.6-1.1-3.72-1.63-6.4-1.63z" stroke="#000" stroke-opacity="0" stroke-width=".89" fill="#d2e3fc"/><path d="M2155.3 1658.56c0-3.73-1.08-7.47-3.2-10.67l-6.4 6.4c.53 1.58 1.06 2.65 1.06 4.26 0 2.67-1.06 4.8-2.66 6.4l3.2 8.53c5.32-3.2 8-9.07 8-14.94z" stroke="#000" stroke-opacity="0" stroke-width=".89" fill="#5e97f6"/><path d="M2138.22 1667.66c-4.8 0-9.08-3.73-9.08-8.56 0-4.78 3.73-9.04 8.55-9.04 1.6 0 3.73.53 5.34 1.58l6.4-5.88c-3.72-3.2-7.5-4.78-11.75-4.78-9.62 0-17.65 8-17.65 17.6 0 9.6 7.5 17.6 17.64 17.6 1.05 0 2.67 0 3.73-.53l-3.2-8z" stroke="#000" stroke-opacity="0" stroke-width=".89" fill="#5e97f6"/><path d="M2160.15 1674.64c-3.8 0-7.52.56-11.24 1.6l4.84 11.73c2.13 0 4.27-.47 6.4-.47 14.97 0 26.7 12.22 26.7 26.66 0 14.92-12.28 26.67-26.7 26.67-14.96 0-26.75-12.22-26.75-26.67 0-10.16 5.37-19.2 14.4-23.5l-4.76-11.74c-19.8 9.6-27.8 33.65-18.2 52.86 9.65 19.76 33.65 27.78 52.9 18.17 19.78-9.6 27.78-33.65 18.2-52.85-6.97-13.4-20.83-22.46-35.8-22.46z" stroke="#000" stroke-opacity="0" stroke-width=".89" fill="#4285f4"/><path d="M2120.05 1626v128h79.9v-128z" stroke="#000" stroke-opacity="0" fill-opacity="0"/><use xlink:href="#n" transform="matrix(1,0,0,1,2120.05,1759) translate(6.178385416666671 20.616319444444443)"/><path d="M1510.87 1690h592.8" stroke="#3a414a" fill="none"/><path d="M1510.88 1690.47h-.64l.25-.94h.38z" stroke="#3a414a" stroke-width=".05" fill="#3a414a"/><path d="M2118.43 1690l-14.26 4.63v-9.27z" stroke="#3a414a" fill="#3a414a"/><path d="M228.2 1934.8l.3.2.87.46 9 13.18 9.3 6.14 2.03 2.24.3.67-.3.54-53.14 54.85-1.16.22-.58-1 .3-8.95.57-12.5 1.16-8.16.87-5.8 1.16-4.58 1.15-3.46.87-2.9 1.16-2.47.87-2.02 1.16-1.67.88-1.56.88-1.22.87-1.12.87-1 19.16-19.9.3-.1.28-.1h.3z" stroke="#000" stroke-opacity="0" fill="#017cee"/><path d="M250.86 1958.24l54.3 53.5.3 1.13-1.17.67-8.72-.22-12.5-.8-8.12-1-5.8-1-4.36-1.1-3.5-1.02-2.9-1.12-2.3-1-2.05-1-1.74-1-1.44-.9-1.45-1-1.15-.9-.87-.9-19.75-19.32v-.23l-.3-.33v-.23l.3-.55v-.45l.58-.67 13.08-9.16 6.1-9.38 2.03-2.13.88-.22z" stroke="#000" stroke-opacity="0" fill="#00ad46"/><path d="M248.25 1961.6l-2.9 7.37-1.46 5.47-1.17 4.25-.58 3.34v7.25l.3 1.8.28 1.55.58 1.34.6 1.33.57 1.12.58 1.12.58 1.1.88.9.88 1-19.75-19.54-.3-.22-.28-.33v-.33l-.3-.45v-1.81l.3-1 .58-1.45 1.16-1.9 2.03-2.68 3.77-3.7 6.1-4.46 9.58-5z" stroke="#000" stroke-opacity="0" fill="#04d659"/><path d="M305.45 1903.06v8.94l-.87 12.5-1.16 8.16-.88 5.8-1.16 4.6-.87 3.46-1.15 2.9-1.16 2.46-.88 2-.87 1.68-1.16 1.57-.9 1.23-.86 1.1-.87 1.02-19.16 19.88-.28.1-.3.13H272.35l-.57-.24-.58-.44-9.3-13.2-9.3-6.13-2.03-2.24v-.67l.3-.57 52.84-54.85 1.17-.22z" stroke="#000" stroke-opacity="0" fill="#00c7d4"/><path d="M254.06 1959.47l7.25 2.9 5.53 1.8 4.06 1 3.48.45 2.6.22h2.63l1.75-.1 1.74-.23 1.73-.44 1.45-.45 1.17-.43 1.16-.56 1.17-.66.87-.8 1.16-.77.87-.9-19.45 20.12-.3.2-.28.12-.3.22-.28.12-.58.1h-.6l-.56-.1-1.17-.23-1.45-.56-1.74-1.22-2.9-2.13-3.5-3.8-4.34-6.25-4.94-9.38z" stroke="#000" stroke-opacity="0" fill="#11e1ee"/><path d="M204.98 1902.06l12.5.78 7.83 1 5.82 1 4.64 1.13 3.5 1 2.9 1.12 2.3 1 2.04 1 1.75 1 1.45.9 1.16 1 1.16.9.87.9 19.74 19.32v.22l.3.34v.78l-.3.44-.58.67-12.78 9.16-6.1 9.4-2.32 2.1-.58.23-.58-.33-54.3-53.5-.3-1.13.88-.67z" stroke="#000" stroke-opacity="0" fill="#e43921"/><path d="M272.93 1934.34v.34l.3.22.28.33v2.25l-.28 1-.58 1.44-1.16 1.9-2.04 2.7-3.77 3.67-6.1 4.46-9.3 5.03 1.75-3.92 2.9-7.38 1.75-5.47.87-4.25.58-3.35.3-2.8v-2.45l-.3-2-.3-1.8-.28-1.56-.58-1.34-.3-1.34-.57-1.12-.88-1.1-.6-1.13-.86-.9-.87-1z" stroke="#000" stroke-opacity="0" fill="#ff7557"/><path d="M230.25 1934.12l.87.22 1.45.56 2.03 1.23 2.6 2.12 3.5 3.8 4.64 6.25 4.94 9.4-4.06-1.8-7.26-2.9-5.23-1.8-4.36-1-3.48-.44-2.62-.23h-2.33l-2.03.1-1.74.24-1.74.44-1.16.46-1.46.45-1.16.57-1.16.67-.87.78-.87.78-1.16.9 19.45-20 .3-.34.28-.1.3-.23.28-.1.6-.13h.57z" stroke="#000" stroke-opacity="0" fill="#0cb6ff"/><path d="M251.73 1956l.87 1.7-.58 1.66-1.74.67-1.74-.67-.58-1.67.58-1.7 1.74-.66z" stroke="#000" stroke-opacity="0" fill="#4a4848"/><path d="M342.03 1927.3l1.16.56.57.56.6 1.12.57 1.34v2.57l-.3 1.56-.28 1.24-.6.9-1.15.77-1.15.46-.87.1-1.74-.2-1.16-.68-.58-.67v5.15l-.3.1v.12H335.35l-.28-.1v-14.76l.3-.1H336.8v.1l.28.13v1.12l.87-.9 1.45-.56 1.16-.12zm-3.2 1.68l-1.15.78-.3 1-.28 1.23v1.67l.3 1.12.57 1 .87.77 1.16.23 1.16-.23.87-.78.58-1 .3-1.47v-.54l-.3-2.24-.86-1.23-1.74-.55zm50.53-1.68l1.16.56.87.67.57 1.12.58 1.23V1933.32l-.3.12H385v.22l.3 1.23.58 1.12.87.66 1.16.23.88-.1.58-.23.58-.44.3-.45.28-.22.3-.12h1.45v.89l-.6.67-.57.57-.87.56-1.16.33-1.16.1-1.44-.2-1.45-.57-.58-.57-.87-1.12-.3-1.2-.28-1.35v-1.34l.3-1.56.57-1.23.58-.88 1.17-.78 1.15-.45 1.16-.12zm-2.6 1.57l-1.17.67-.6 1v1.34l5.8.1-.28-1.44-.58-1-.87-.67-1.16-.23zm-21.8-1.68l1.17.44.87.56.58.78.6.78v1.11l-.3.12h-1.45v-.12l-.3-.23-.28-.9-.58-.55-.87-.33-.88-.12-1.16.23-.87.56-.6 1-.28 1.45v1.56l.3 1.45.57 1.02.86.55 1.16.23.87-.12.86-.33.58-.56.3-.9.28-.23v-.1l.3-.12h.86l.3.1.3.13V1935.8l-.6.77-.58.8-.87.54-1.16.46-1.45.1-1.45-.1-1.45-.56-.58-.56-.88-1.1-.3-1.35-.28-1.13v-1.8l.3-1.44.57-1.34.6-.8 1.15-.77 1.16-.34 1.16-.12zm-11.6 0l1.16.55.58.45.58 1.1.3 1.47V1938.13l-.3.12h-1.16l-.3-.1v-1.25l-.57.57-.87.56-.88.33-1.45.1-.87-.1-.87-.33-.86-.45-.58-.67-.3-.77-.28-.9.3-1.23.86-1 1.16-.67 1.45-.45.58-.1 3.2-.46v-.55l-.58-1.68-2.04-.46-.86.1-.58.24-.58.44-.3.45v.23l-.28.1v.12h-1.16v-.1l-.3-.13v-.79l.3-.66.58-.56.87-.55 1.15-.34 1.16-.12zm-1.75 6.02l-1.15.23-.87.44-.58.55-.3.67.3.78.3.56.86.34.87.1 1.17-.22 1.16-.66.58-1.12.3-1.45v-.67zm20.92-9.94v.1l.3.12V1928.63l.57-.66.86-.44.87-.34 1.16-.12 1.45.22 1.16.67.3.45.87 1 .3 1.35v7.36l-.3.12h-1.44v-.1l-.3-.12v-7.49l-.57-.9-.88-.66-1.16-.23-1.15.23-1.16.67-.6 1V1938.03l-.28.1v.12h-1.45l-.3-.1v-14.75l.3-.12h1.16zm-45 .34l.3.33 5.2 13.63v.55l-.28.12h-1.46v-.1l-.28-.12v-.12l-1.16-3h-6.68l-1.16 3-.3.13v.1l-.28.12h-1.16l-.3-.1v-.57l5.23-13.63.28-.33.3-.12h1.44zm-3.78 9.5h5.52l-2.9-7.5z" stroke="#000" stroke-opacity="0" fill="#51504f"/><path d="M366.7 1934.67h-.28v-.1V1934.98l-.58.9-.58.67v-.22.22l-.87.34-.88.12-1.16-.22-.87-.67v-.23l.86.56 1.16.22.87-.1.57-.34.58-.56.58-.78v-.45h.3v-.1H367.88l.3.2.27.13v.33l-.28.8-.3.88-.87.8-.87.55v-.23l.87-.56.58-.78v.1-.1l.3-.78.3-.67v-.2h-.3l.3-.13-.3.12v-.13h-1.17zm-17.4 1.9v-.1.1l-.6-.55-.28-.9.3-.78.57-.56 1.15-.45 1.16-.33 2.63-.34v.12-.12.89l-.3 1.46-.57 1.13-1.17.67-1.17.22-.87-.1zm.28-.22l.58.22.87.12 1.17-.13.87-.67.3.12-.3-.12.58-1 .3-1.45v-.45l-2.34.33v-.1.1l-1.15.23-.87.44v-.1.1l-.58.56v1.23zm15.68-7.26l.58.55.58.9v.32h1.46v-.1l.3-.12v-.1l-.3-.68-.3-.78v-.12.1l-.58-.77-.87-.55-1.16-.45-1.45-.1v-.35l1.45.23 1.16.33.87.68.87.8.3.88.28.78v.23l-.28.22-.3.2h-1.44v-.1l-.3-.22v-.23l-.57-.78-.58-.56.3-.1-.3.1-.58-.32-.88-.1-1.16.2-.87.57-.6 1v4.24l.6 1v.23l-.88-1.12v-1.44l-.3-.78h.3-.3l.3-.8v-1.44l.87-1.12v.12-.12l.86-.67 1.16-.22.87.1zm-35.13 5.8l1.16 2.9-.3.1h.3v.13l.28.1h1.16v-.1l.3-.12v-.2l-5.24-13.75-.3-.1v-.22h-2.03v.1l-.28.1v.12l-5.24 13.74-.28-.12 5.22-13.74.3-.22v-.23l.28-.12h2.04l.3.1v.24l.28.22 5.22 13.74h-.3.3v.22h-.3.3v.23l-.3.22-.28.1v.12h-1.16l-.3-.1-.28-.12.3-.1-.3.1V1937.9l-1.16-2.78h-6.68l-1.16 2.8v.22l-.3.1v-.1.22l-.28.1h-1.16l-.3-.1v-.1l-.28-.23v-.45l.28.1v.22l.3.13v.1h1.16l.3-.1v-.12h.28l-.3-.1 1.17-2.9h.3-.3v-.1h7.27v.1h-.3zm62.13-1.34H385l.3 1.23.58 1.1.87.67 1.16.23.88-.12.58-.33.58-.33.3-.45v.1-.33h.28v-.1h1.75v.1l.28.23v.22l-.3.55-.28.67-.87.56-.87.56v-.1.1l-1.16.33-1.16.23-1.15-.12-1.45-.44-1.17-.9.3-.1-.3.1-.58-1-.58-1.23-.3-1.55h.3-.3v-.67h.3-.3v-.8l.3.13-.3-.1.3-1.35.58-1.23.58-1.1.3.1-.3-.1.88-.68 1.46-.56 1.45-.22 1.17.22 1.45.45.87.9.28.2.58 1.13.6 1.34v1.45h-.3l-.3-1.56-.3-1.24-.57-1.12v-.1.1l-.88-.67-1.16-.56-1.45-.2-.86.1-1.45.45-1.18.78-.58.78-.58 1.24-.3 1.57v1.35l.3 1.22.58 1.35.58 1 .58.56 1.46.56 1.45.22 1.17-.1 1.16-.35.87-.54.58-.56v.1-.1l.3-.56.28-.45v-.22h-1.73v-.23.44l-.58.44-.58.44v-.1.1l-.58.34-.87.1-1.44-.32-.87-.78h.28-.3l-.57-1.12-.3-1.23h.3-.3V1933.33l.3-.1h7.56V1932.55h.3v.66l-.3.23v.1zm-68.8-.34v-.22l.28.1-.3-.1 2.9-7.48v-.12h.3v.12l-.3.1.3-.1 2.9 7.48-.28.1.3-.1v.1l-.3.12h-5.52zm.28-.33h5.23l-2.62-6.83zm29.9-3.92l.6.78V1931.54l-3.2.45v-.34.33l-.6.1-1.44.34-.87.67-.3-.2.3.2-.87 1.02-.3 1.1v.9l.3.68.87.67.58.44.88.35.87.1 1.45-.1.88-.34.58-.54.58-.56.3-.12V1937.9l.28.13v.1h1.16l.3-.1v-7.14h.28v7.15l-.3.22v.1l-.28.12h-1.16v-.1l-.3-.12v-.1.1l-.28-.22v-.79l-.3.34-.86.56-.88.33-1.45.23-.87-.12-.87-.33-.86-.56-.58-.68v-.1.1l-.58-.78v-1l.3-1.35.86-1 .58-.35 1.16-.56 1.45-.34 2.9-.45v-1.33l-.57-.56-.58-.43-1.17-.12-.86.12-.58.22v-.12.1l-.3.46-.57.44v.35l-.3.1h-1.16l-.3-.1v-.22.1l-.28-.1v-.34h.3-.3l.3-.56.28-.67v.1-.1l.58-.56.87-.56 1.15-.43 1.16-.12 1.18.12 1.45.33.87.78.3.23.57 1.24.3 1.34h-.3l-.3-1.46-.57-1.1v-.12l-.3.1-.28-.44-1.16-.45-1.75-.2-1.15.1-.87.34-.3-.12.3.12-.87.56-.57.55-.3.56-.28.46v.22h.3v.12H349v.1-.32h.3-.3l.58-.57.58-.43.58-.34.87-.1 1.18.1zm5.52 1.45l-.3 1.45V1934.68l.6 1.34.58 1.1.57.46 1.47.56 1.45.22 1.45-.22 1.16-.34v.34l-1.16.33-1.45.23-1.16-.12-1.45-.44-1.16-.78.3-.12-.3.12-.58-.9-.58-1.34v-4.47l.58-1.34.58-1.1.88-.67 1.45-.45 1.45-.22v.33l-.87.1-1.45.45-1.16.67-.6.67zm25.55 1.67v-.1h.3v-.12h-.3l.3-1.34.6-1.12v.12-.12l.86-.78 1.45-.22 1.17.22.87.78.58 1.12.3 1.34v.23H385zm1.18-2.45l-.58 1-.3 1.12h5.52l-.3-1.12-.57-1 .3-.1-.3.1-.87-.67-.87-.23-1.15.23zm-40.65 3.8v.1l-.3 1.24-.28 1.22-.88 1.1-.58.68-1.17.67-1.45.23-1.16-.23-1.45-.44-.87-.8V1942.28l-.3.1-.28.12h-.88l-.3-.12-.28-.1v-.23l-.3-.23v-14.07l.3-.22v-.23l.3-.1.28-.12h.88l.3.1.28.12v1.01l.58-.55 1.16-.67 1.74-.22.87.1 1.45.45.88.9.58 1 .58 1.24.3 1.45v1.22zm-8.13-4.58l-.3-.12v-1.33.1l-.28-.1h-1.18V1942.15h1.48v-.1.1-5.36h.28v-.12.12l.58.56 1.16.78 1.74.22.58-.1 1.45-.46.88-.78.58-.78.6-1.23v-1.55h.28-.3v-1.34h.3-.3v-1.1l-.28-1.35-.88-1.12.3-.1-.3.1-.3-.45-1.15-.67-1.45-.2-1.16.1-1.16.45-1.16 1v.12zm6.1 4.58l-.3 1.34-.58 1.1-.87.78-1.45.23-1.16-.22-1.16-.78-.58-1-.3-1.23h.3-.3v-.78h.3l-.3-.12v-.8h.3-.3l.3-1.2.58-1.13v.1-.1l.87-.78 1.45-.23 1.45.23.87.78.3.33.28 1.23.3 1.58v.33zm-1.17 2.34l.58-1.13v-1.34h.3-.3l.3-.22v-.77l-.3-1.45-.57-1-.87-.68-1.16-.22-1.16.22-.87.67-.58 1-.3 1.12v1.67l.3 1.12.57.88.87.67 1.16.22 1.16-.22zm31.36-7.94l.57-.56 1.16-.33 1.16-.12.57.12 1.46.44 1.16.9.57.8.3 1.22.28 1.45V1938.03l-.3.22-.28.1v.12h-1.16l-.28-.1-.3-.12.3-.1-.3.1v-6.37l-.28-1.23-.58-.9.3-.1h-.3l-.58-.56-1.17-.12-1.15.1-.87.68-.58.9-.3 1.22v6.37l-.28.1-.3.12h-1.15v-.1l-.3-.12v-.1.1l-.28-.22V1923.5l.28-.22.3-.1v-.12h1.15l.3.1.28.12v5.03zm-2.62-4.13v14.17l.3.13v.1h1.15l.3-.1v-6.14l.28-1.34.6-1 .86-.67 1.45-.23 1.18.23.87.67.58 1 .3 1.34V1938.13h1.45v-.1l.3-.12v-7.03l-.6-1.33-.57-1v-.12l-.3-.22-1.15-.8-1.46-.2-1.17.1-.87.34v-.12.12l-.87.44-.6.67v.12h-.28V1923.4v.1l-.3-.1h-1.15v.1l-.3.12zM434.07 1959.92l2.62 1.23 2.02 1.56.3.13 1.73 2.45 1.17 3.02.58 3.35v4.69l-.88 4-1.16 2.92-1.45 1.9-2.02 1.56-2.6 1.23-4.08.56h-.58l-4.07-.56-2.6-1.12-2.33-1.56-1.74-2.46-1.17-3.13-.56-3.36v-4.7l.87-4.02 1.17-2.8 1.45-2 2.03-1.68 2.9-1.12 3.78-.56h.3zm-5.8 3.8l-1.45.44-1.17.56-.87.9-.3.1-.57 1-.57 1.13-.58 1.34-.3 1.56v6.93l.3 1.45.58 1.23.58 1.12.6.78 1.15.9 1.17.66 1.16.34 1.74.22 1.74-.1 1.45-.45 1.18-.67.87-.9h.3l.57-1 .58-1.23.58-1.23.3-1.57v-5.26l-.3-1.66-.3-1.44-.28-1.23-.58-1.12-.58-.77-1.17-.9-1.16-.66-1.44-.45-1.45-.1h-.28zm22.06-3.58l.3.23.3.22.28.33 5.8 20.2 6.4-19.98.3-.45.28-.33.3-.23.57-.1h1.75l.58.1.58.23.3.33v.45l6.38 20 6.1-20.22v-.34l.28-.23.3-.23.57-.1H484l.58.1.3.23.28.33v1.01l-7.55 24.92-.3.56-.28.44-.58.23-.58.1h-2.05l-1.16-.33-.6-1-6.38-19.2-6.1 19.2-.57 1-1.17.34h-2.03l-.87-.1-.3-.24-.28-.44-.3-.56-7.54-24.9-.3-.57.3-.45v-.33l.58-.23.3-.1h2.3zm-48.48-11.84l.58.23.3.44v2.8l-.3.44-.58.24H398.65l-1.74.22-1.15.56-.58.56-.58 1-.3 1.34v3.91h11.32v-10.6l.3-.46v-.44l.57-.23.28-.1h2.62l.58.1.3.23.28.44v38.21l-.3.44-.28.23-.6.1h-2.6l-.3-.1-.57-.23v-.44l-.28-.45v-22.45H394.3v22.9l-.3.44-.57.23-.3.1h-2.6l-.6-.1-.28-.23-.3-.44v-22.9h-4.92l-.58-.34-.3-.33v-2.79l.3-.43.58-.23.3-.1h4.64v-2.7l.3-3.45.86-2.02 1.16-1.34 1.17-1.12 2.03-.78 3.48-.45h3.2zm-31.36 11.84l.28.23.3.44.28.46v2.46l1.16-1.57 1.45-1 2.03-.78 2.62-.34h2.32l.3.1.57.24v.44l.3.46v2.23l-.3.44v.34l-.57.22-.3.1h-3.18l-1.75.12-1.16.45-1.16.67-.58.56-.87 1-.58 1.23-.3 1.46v17.08l-.28.44-.3.23-.57.1h-2.62l-.58-.1-.3-.23-.28-.44V1960.8l.3-.43.28-.23.58-.1h2.33zm-12.8 0l.3.23.3.44.28.46v25.47l-.3.45-.28.44-.3.23-.57.1h-2.6l-.3-.1-.58-.23v-.44l-.3-.45v-25.47l.3-.45v-.43l.58-.23.3-.1h2.6zm-23.22-9.5l.58.9 13.36 34.74v1.01l-.3.32-.28.23-.58.1h-2.6l-.6-.1-.3-.12-.28-.33-.3-.34-2.9-7.6h-17.4l-2.92 7.6-.28.34-.3.33-.3.12-.57.1h-2.6l-.3-.1-.28-.23-.3-.33-.28-.46v-.33l.3-.22 13.06-34.74.58-.9 1.16-.33h3.48zm-10.16 24.14h14.52l-7.26-19.1zm33.68-25.36l.58.34.3.44v3.91l-.3.35-.58.22-.3.1h-3.47l-.58-.1-.3-.22-.28-.34V1950.2l.3-.44.28-.34h4.06z" stroke="#000" stroke-opacity="0" fill="#51504f"/><g fill="none"><path d="M954 1840a6 6 0 0 1 6 6v88a6 6 0 0 1-6 6H-274a6 6 0 0 1-6-6v-88a6 6 0 0 1 6-6z"/><path d="M-280 1840c0 5.52 4.48 10 10 10h600c5.52 0 10 4.48 10 10 0-5.52 4.48-10 10-10h600c5.52 0 10-4.48 10-10" stroke="#000" stroke-width="2"/></g><path d="M343.75 1320c-4.56 0-9 .4-12.78 1.08-11.34 2.02-13.45 6.2-13.45 14v10.24h26.8v3.36h-36.8c-7.8 0-14.68 4.72-16.8 13.6-2.44 10.24-2.55 16.57 0 27.2 1.9 7.95 6.46 13.6 14.24 13.6h9.22v-12.24c0-8.9 7.67-16.7 16.8-16.7h26.78c7.45 0 13.34-6.06 13.34-13.6v-25.46c0-7.27-6.12-12.8-13.34-14-4.67-.8-9.45-1.08-14-1.08zm-14.45 8.2c2.78 0 5 2.3 5 5.13s-2.22 5.12-5 5.12-5.1-2.3-5.1-5.12c0-2.83 2.32-5.12 5.1-5.12z" stroke="#000" stroke-opacity="0" fill="url(#o)"/><path d="M374.43 1348.68v11.86c0 9.3-7.78 16.96-16.67 16.96h-26.8c-7.33 0-13.44 6.33-13.44 13.74v25.45c0 7.26 6.33 11.57 13.45 13.6 8.45 2.55 16.56 2.96 26.8 0 6.66-1.9 13.33-5.8 13.33-13.6v-10.24h-26.8v-3.37h40.25c7.78 0 10.67-5.4 13.45-13.6 2.78-8.36 2.67-16.44 0-27.2-2-7.83-5.67-13.62-13.45-13.62zm-15 64.64c2.77 0 5 2.3 5 5.12 0 2.83-2.23 5.12-5 5.12-2.78 0-5-2.3-5-5.12 0-2.83 2.22-5.12 5-5.12z" stroke="#000" stroke-opacity="0" fill="url(#p)"/><path d="M344.64 1440.8c19.9 0 35.9 3.1 35.9 6.87 0 3.9-16 7-35.9 7-19.78 0-35.9-3.1-35.9-7 0-3.78 16.12-6.87 35.9-6.87z" stroke="#000" stroke-opacity="0" stroke-width="15.42" fill="url(#q)"/><path d="M250.85 1444.33a6 6 0 0 1 6-6H428.8a6 6 0 0 1 6 6v24.9a6 6 0 0 1-6 6H256.86a6 6 0 0 1-6-6z" fill="none"/><use xlink:href="#r" transform="matrix(1,0,0,1,255.85328993055555,1443.334050950015) translate(0 21.58376736111111)"/><use xlink:href="#s" transform="matrix(1,0,0,1,255.85328993055555,1443.334050950015) translate(80.12152777777777 21.58376736111111)"/><path d="M-250.82 1332.63a10 10 0 0 1 8.82-5.3h84a10 10 0 0 1 8.82 5.3l26.36 49.4a11.25 11.25 0 0 1 0 10.6l-26.36 49.4a10 10 0 0 1-8.82 5.3h-84a10 10 0 0 1-8.82-5.3l-26.36-49.4a11.25 11.25 0 0 1 0-10.6z" stroke="#000" stroke-width="2" fill="#edf5ff"/><use xlink:href="#t" transform="matrix(1,0,0,1,-275,1332.334050950015) translate(22.51476562499999 62.77777777777778)"/><use xlink:href="#u" transform="matrix(1,0,0,1,-275,1332.334050950015) translate(92.00261284722222 62.77777777777778)"/><path d="M1677 2182c0 54.12-211.77 98-473 98s-473-43.88-473-98v-784c0-54.12 211.77-98 473-98s473 43.88 473 98z" stroke="#000" stroke-width="2" fill-opacity="0"/><path d="M1677 1398c0 54.12-211.77 98-473 98s-473-43.88-473-98" stroke="#000" stroke-width="2" fill="none"/><g fill="none"><path d="M777 1540a6 6 0 0 1-6-6v-76.67a6 6 0 0 1 6-6h854a6 6 0 0 1 6 6V1534a6 6 0 0 1-6 6z"/><path d="M1637 1540c0-5.52-4.48-10-10-10h-413c-5.52 0-10-4.48-10-10 0 5.52-4.48 10-10 10H781c-5.52 0-10 4.48-10 10" stroke="#000" stroke-width="2"/></g><path d="M1095.13 2206a6 6 0 0 1 6-6h205.74a6 6 0 0 1 6 6v30.28a6 6 0 0 1-6 6h-205.74a6 6 0 0 1-6-6z" fill="none"/><use xlink:href="#v" transform="matrix(1,0,0,1,1100.1278125,2205) translate(0 26.200520833333336)"/><use xlink:href="#w" transform="matrix(1,0,0,1,1100.1278125,2205) translate(65.546875 26.200520833333336)"/><path d="M168 2046a6 6 0 0 1 6-6h296.45a6 6 0 0 1 6 6v30.28a6 6 0 0 1-6 6H174a6 6 0 0 1-6-6z" fill="none"/><use xlink:href="#x" transform="matrix(1,0,0,1,173,2045) translate(0 26.200520833333336)"/><use xlink:href="#y" transform="matrix(1,0,0,1,173,2045) translate(127.16145833333334 26.200520833333336)"/><path d="M272.4 1166a6 6 0 0 1 6-6h123.2a6 6 0 0 1 6 6v30.28a6 6 0 0 1-6 6H278.4a6 6 0 0 1-6-6z" fill="none"/><use xlink:href="#v" transform="matrix(1,0,0,1,277.40385416666663,1165) translate(0 26.200520833333336)"/><use xlink:href="#z" transform="matrix(1,0,0,1,277.40385416666663,1165) translate(65.546875 26.200520833333336)"/><path d="M271.9 1181.14H105.43a6 6 0 0 0-6 6v132.8" stroke="#3a414a" fill="none"/><path d="M272.4 1181.6h-.5v-.94h.5z" stroke="#3a414a" stroke-width=".05" fill="#3a414a"/><path d="M99.43 1334.72l-4.63-14.27h9.27z" stroke="#3a414a" fill="#3a414a"/><path d="M408.1 1181.14h148.7a6 6 0 0 1 6 6v132.8" stroke="#3a414a" fill="none"/><path d="M408.1 1181.6h-.5v-.94h.5z" stroke="#3a414a" stroke-width=".05" fill="#3a414a"/><path d="M562.8 1334.72l-4.64-14.27h9.27z" stroke="#3a414a" fill="#3a414a"/><path d="M1438 1618.5v-4.9m0-4.92v-9.82m0-4.9v-9.84m0-4.9v-9.83m0-4.92v-9.82m0-4.9v-9.83m0-4.9v-9.83m0-4.9v-9.84m0-4.9v-9.83m0-4.9V1481m0-4.9v-9.83m0-4.9v-9.83m0-4.9v-9.84m0-4.9v-9.83m0-4.9v-9.83m0-4.9v-9.83m0-4.9v-9.83m0-4.9v-9.83m0-4.9v-9.83m0-4.9v-9.82m0-4.9v-9.83m0-4.9v-9.84m0-4.9v-9.82m0-4.9v-9.83m0-4.9V1260m0-4.9v-9.83m0-4.92v-9.83m0-4.9v-9.83m0-4.9V1206a6 6 0 0 1 6-6h4.96m4.96 0h9.9m4.97 0h9.9m4.97 0h9.9m4.97 0h9.92m4.96 0h9.9m4.97 0h9.9m4.96 0h9.92m4.96 0h9.92m4.95 0h9.93m4.96 0h9.9m4.96 0h9.92m4.96 0h9.92m4.95 0h9.93m4.96 0h9.9m4.96 0h9.92m4.96 0h9.9m4.97 0h9.93m4.96 0h9.9m4.96 0h9.92m4.96 0h9.9m4.97 0h9.93m4.96 0h9.9m4.96 0h9.92m4.96 0h9.9m4.97 0h9.93m4.96 0h9.9m4.96 0h9.92m4.96 0h9.9m4.97 0h9.93m4.96 0h9.9m4.96 0h9.92m4.96 0h9.9m4.97 0h9.93m4.96 0h9.9m4.96 0h9.92m4.95 0h9.92m4.96 0h9.93m4.95 0h9.92m4.96 0h9.9m4.97 0h9.92m4.96 0h9.92m4.96 0h9.92m4.96 0h4.96" stroke="#3a414a" fill="none"/><path d="M1438.47 1619h-.94v-.5h.94z" stroke="#3a414a" stroke-width=".05" fill="#3a414a"/><path d="M2098.38 1200l-14.26 4.63v-9.27z" stroke="#3a414a" fill="#3a414a"/><path d="M1760 1106a6 6 0 0 1 6-6h148a6 6 0 0 1 6 6v68a6 6 0 0 1-6 6h-148a6 6 0 0 1-6-6z" fill="none"/><use xlink:href="#A" transform="matrix(1,0,0,1,1765,1105) translate(45.26909722222223 27.45095486111111)"/><use xlink:href="#B" transform="matrix(1,0,0,1,1765,1105) translate(14.713541666666679 59.71657986111111)"/><path d="M1750 1726a6 6 0 0 1 6-6h168a6 6 0 0 1 6 6v68a6 6 0 0 1-6 6h-168a6 6 0 0 1-6-6z" fill="none"/><use xlink:href="#C" transform="matrix(1,0,0,1,1755,1725) translate(39.16124131944445 27.45095486111111)"/><use xlink:href="#D" transform="matrix(1,0,0,1,1755,1725) translate(24.71354166666668 59.71657986111111)"/><path d="M2156.76 1221.12h6.48v-18.24h16.56v-6.36h-16.56v-18.24h-6.48v18.24h-16.32v6.36h16.32z" stroke="#000" stroke-opacity="0" stroke-width="8.29" fill="#e8762d"/><path d="M2126.28 1247.28h5.52v-16.08h14.76v-5.04h-14.76v-16.32h-5.52v16.32h-14.76v5.04h14.76z" stroke="#000" stroke-opacity="0" stroke-width="8.29" fill="#c72037"/><path d="M2188.2 1188.96h5.52v-16.08h14.88v-4.8h-14.88v-16.44h-5.52v16.44h-14.76v4.8h14.76z" stroke="#000" stroke-opacity="0" stroke-width="8.29" fill="#5b879b"/><path d="M2157.72 1260h4.8v-11.52h10.08v-4.2h-10.08v-11.52h-4.8v11.52h-9.96v4.2h9.96z" stroke="#000" stroke-opacity="0" stroke-width="8.29" fill="#5c6692"/><path d="M2126.52 1188.96h5.16v-16.32h14.88v-4.56h-14.88v-16.44h-5.16v16.44h-15v4.56h15z" stroke="#000" stroke-opacity="0" stroke-width="8.29" fill="#eb9129"/><path d="M2205.12 1213.2h4.68v-11.28h10.2v-4.44h-10.2v-11.28h-4.68v11.28h-9.96v4.44h9.96z" stroke="#000" stroke-opacity="0" stroke-width="8.29" fill="#5c6692"/><path d="M2188.2 1247.28h5.52v-16.08h14.88v-5.04h-14.88v-16.32h-5.52v16.32h-14.76v5.04h14.76z" stroke="#000" stroke-opacity="0" stroke-width="8.29" fill="#1f457e"/><path d="M2171.88 1154.52v-3.48h-9.96V1140h-3.6v11.04h-9.96v3.48h9.96v11.04h3.6v-11.04zm-61.92 57.84h3.6v-11.04h9.96v-3.48h-9.96v-10.8h-3.6v10.8H2100v3.72l9.96-.24z" stroke="#000" stroke-opacity="0" stroke-width="8.29" fill="#7199a6"/><path d="M2080 1286a6 6 0 0 1 6-6h151.63a6 6 0 0 1 6 6v24.9a6 6 0 0 1-6 6H2086a6 6 0 0 1-6-6z" fill="none"/><g><use xlink:href="#E" transform="matrix(1,0,0,1,2085,1285) translate(0 21.58376736111111)"/><use xlink:href="#F" transform="matrix(1,0,0,1,2085,1285) translate(89.22526041666666 21.58376736111111)"/></g><path d="M-280 1726a6 6 0 0 1 6-6h908a6 6 0 0 1 6 6v48a6 6 0 0 1-6 6h-908a6 6 0 0 1-6-6z" stroke="#000" stroke-width="2" fill="#edf5ff"/><g><use xlink:href="#G" transform="matrix(1,0,0,1,-275,1725) translate(417.92860243055554 34.02777777777778)"/></g><path d="M734 1066a6 6 0 0 1 6-6h908a6 6 0 0 1 6 6v48a6 6 0 0 1-6 6H740a6 6 0 0 1-6-6z" stroke="#000" stroke-width="2" fill="#edf5ff"/><g><use xlink:href="#H" transform="matrix(1,0,0,1,739,1065) translate(360.6911892361111 34.02777777777778)"/><use xlink:href="#I" transform="matrix(1,0,0,1,739,1065) translate(476.55490451388886 34.02777777777778)"/><use xlink:href="#J" transform="matrix(1,0,0,1,739,1065) translate(497.1169704861111 34.02777777777778)"/></g><path d="M1232.23 2046a6 6 0 0 1 6-6h180.54a6 6 0 0 1 6 6v30.28a6 6 0 0 1-6 6h-180.54a6 6 0 0 1-6-6z" fill="none"/><g><use xlink:href="#v" transform="matrix(1,0,0,1,1237.2319791666666,2045) translate(0 26.200520833333336)"/><use xlink:href="#K" transform="matrix(1,0,0,1,1237.2319791666666,2045) translate(65.546875 26.200520833333336)"/></g><path d="M1042.87 1690h4.58m4.6 0h.9m4.6 0h.9m4.6 0h9.16m4.6 0h.9m4.6 0h.9m4.6 0h9.17m4.58 0h.92m4.6 0h.9m4.6 0h4.57" stroke="#3a414a" fill="none"/><path d="M1042.88 1690.47h-.64l.25-.94h.38z" stroke="#3a414a" stroke-width=".05" fill="#3a414a"/><path d="M1130.63 1690l-13 7.5v-15z" stroke="#3a414a" fill="#fff"/><path d="M1276.87 1690h4.58m4.6 0h.9m4.6 0h.9m4.6 0h9.16m4.6 0h.9m4.6 0h.9m4.6 0h9.17m4.58 0h.92m4.6 0h.9m4.6 0h4.57" stroke="#3a414a" fill="none"/><path d="M1276.88 1690.47h-.64l.25-.94h.38z" stroke="#3a414a" stroke-width=".05" fill="#3a414a"/><path d="M1364.63 1690l-13 7.5v-15z" stroke="#3a414a" fill="#fff"/><defs><path d="M730-137c145 0 253-29 323-105v-327H716v-156h528v534C1148-51 964 20 729 20c-394 0-598-279-607-678v-127c-5-410 194-690 585-691 310-1 499 171 537 447h-192c-36-193-151-289-344-289-285 0-393 220-393 528v119c-5 296 140 534 415 534" id="L"/><path d="M688-137c238 0 323-102 359-325h193c-32 297-228 482-552 482-361 0-569-299-569-680 0-197 8-360 73-497 88-186 257-317 513-319 316-2 509 195 535 488h-193c-31-212-118-330-342-330-272 0-397 224-393 523v141c-3 282 115 517 376 517" id="M"/><path d="M631-137c179 0 314-70 314-231 0-71-25-127-75-166s-141-77-272-115c-165-47-285-106-360-175s-112-154-112-255c0-245 231-397 495-397 206 0 369 89 449 218 43 68 65 142 65 223H942c0-184-129-283-321-283-172 0-299 76-301 236 0 59 26 109 76 150s135 78 256 113c205 59 345 116 436 256 35 53 50 119 50 193-2 256-231 398-507 390C333 12 90-129 80-422h193c0 187 160 285 358 285" id="N"/><g id="a"><use transform="matrix(0.010850694444444444,0,0,0.010850694444444444,0,0)" xlink:href="#L"/><use transform="matrix(0.010850694444444444,0,0,0.010850694444444444,15.13671875,0)" xlink:href="#M"/><use transform="matrix(0.010850694444444444,0,0,0.010850694444444444,29.600694444444443,0)" xlink:href="#N"/></g><path d="M319-664C304-226 428 158 661 357l-38 113c-89-49-172-133-254-248C142-97 71-578 194-1025c67-244 240-513 429-618l38 122c-201 153-330 502-342 857" id="O"/><path d="M1161-1018c0 201-122 330-278 388l342 618V0h-206L703-589H361V0H168v-1456h482c310-2 511 139 511 438zm-193 0c0-187-120-280-313-280H361v552h295c179 3 313-101 312-272" id="P"/><path d="M561-1102c238-4 403 126 403 351v498c0 99 13 178 38 237V0H808c-11-21-19-59-26-114C696-25 593 20 474 20c-199 0-368-130-365-320 4-251 214-359 490-356h180v-85c-1-135-86-212-229-212-115 0-232 67-233 171H131c20-205 206-316 430-320zM294-326c0 117 90 185 207 185 122 0 239-75 278-162v-222H634c-227 0-340 66-340 199" id="Q"/><path d="M1098-255l208-827h185L1176 0h-150L763-820 507 0H357L43-1082h184l213 810 252-810h149" id="R"/><g id="b"><use transform="matrix(0.010850694444444444,0,0,0.010850694444444444,0,0)" xlink:href="#O"/><use transform="matrix(0.010850694444444444,0,0,0.010850694444444444,7.595486111111111,0)" xlink:href="#P"/><use transform="matrix(0.010850694444444444,0,0,0.010850694444444444,21.278211805555557,0)" xlink:href="#Q"/><use transform="matrix(0.010850694444444444,0,0,0.010850694444444444,33.36588541666667,0)" xlink:href="#R"/></g><path d="M651-255l416-1201h210L737 0H567L28-1456h209" id="S"/><g id="c"><use transform="matrix(0.010850694444444444,0,0,0.010850694444444444,0,0)" xlink:href="#M"/><use transform="matrix(0.010850694444444444,0,0,0.010850694444444444,14.463975694444445,0)" xlink:href="#N"/><use transform="matrix(0.010850694444444444,0,0,0.010850694444444444,27.647569444444443,0)" xlink:href="#S"/></g><path d="M972-643H361V0H169v-1456h902v158H361v498h611v157" id="T"/><path d="M341 0H156v-1082h185V0zm-91-1264c-68 0-108-42-109-105 0-62 41-107 109-107s110 44 110 107-42 105-110 105" id="U"/><path d="M341 0H156v-1536h185V0" id="V"/><path d="M599-131c141 0 220-65 285-146l113 88C906-50 770 20 589 20 281 21 93-214 93-545c0-223 93-397 233-485 74-48 154-72 240-72 300 2 449 218 445 537v77H278c0 197 129 357 321 357zm227-509c-3-180-88-310-260-310-170 0-264 140-282 310h542" id="W"/><path d="M538-131c121 0 232-49 232-156 0-50-20-88-56-117-73-60-334-92-420-143-92-55-162-110-162-238 0-190 192-317 400-317 223 0 414 129 413 338H759c0-108-110-186-227-186-119 0-215 53-215 159 0 45 18 78 53 101 76 52 331 90 416 139 98 57 169 115 169 251C955-92 760 20 538 20c-176 0-314-68-386-174-38-55-57-115-57-179h185c6 129 116 202 258 202" id="X"/><path d="M38 357C331 141 457-487 337-984c-53-219-157-429-299-546l39-113c190 106 362 378 431 621 75 268 76 597 0 868C440 88 266 365 77 470" id="Y"/><g id="d"><use transform="matrix(0.010850694444444444,0,0,0.010850694444444444,0,0)" xlink:href="#T"/><use transform="matrix(0.010850694444444444,0,0,0.010850694444444444,12.28298611111111,0)" xlink:href="#U"/><use transform="matrix(0.010850694444444444,0,0,0.010850694444444444,17.67578125,0)" xlink:href="#V"/><use transform="matrix(0.010850694444444444,0,0,0.010850694444444444,23.06857638888889,0)" xlink:href="#W"/><use transform="matrix(0.010850694444444444,0,0,0.010850694444444444,34.841579861111114,0)" xlink:href="#X"/><use transform="matrix(0.010850694444444444,0,0,0.010850694444444444,46.29991319444444,0)" xlink:href="#Y"/></g><g id="e"><use transform="matrix(0.010850694444444444,0,0,0.010850694444444444,0,0)" xlink:href="#L"/><use transform="matrix(0.010850694444444444,0,0,0.010850694444444444,15.13671875,0)" xlink:href="#M"/><use transform="matrix(0.010850694444444444,0,0,0.010850694444444444,29.600694444444443,0)" xlink:href="#N"/></g><path d="M1216-1011c-1 297-202 441-512 441H361V0H169v-1456h537c297-6 510 164 510 445zm-192 2c1-178-126-288-307-289H361v571h345c196 1 318-92 318-282" id="Z"/><path d="M663-916c-163-27-288 18-338 148V0H140v-1082h180l3 125c61-97 147-145 258-145 36 0 63 5 82 14v172" id="aa"/><path d="M584 20C278 26 81-227 91-551c10-320 175-545 491-551 308-5 503 247 494 573-9 322-175 543-492 549zm-2-970c-208 0-305 185-305 421 0 216 106 398 307 398 211 0 307-186 307-420 0-214-109-399-309-399" id="ab"/><path d="M277-555c0 244 77 420 297 424 127 2 249-93 255-210h175C980-127 805 20 574 20 258 20 81-222 92-562c11-319 164-533 481-540 237-5 426 165 431 392H829c-7-133-115-242-256-240-209 4-296 166-296 395" id="ac"/><path d="M520 20C244 20 95-247 95-550c0-298 151-550 427-552 127 0 227 43 301 130v-564h185V0H838l-9-116C755-25 652 20 520 20zm48-965c-210 0-288 177-288 416 0 218 87 392 286 392 117 0 203-53 257-158v-497c-55-102-140-153-255-153" id="ad"/><g id="f"><use transform="matrix(0.010850694444444444,0,0,0.010850694444444444,0,0)" xlink:href="#O"/><use transform="matrix(0.010850694444444444,0,0,0.010850694444444444,7.595486111111111,0)" xlink:href="#Z"/><use transform="matrix(0.010850694444444444,0,0,0.010850694444444444,21.614583333333332,0)" xlink:href="#aa"/><use transform="matrix(0.010850694444444444,0,0,0.010850694444444444,28.917100694444443,0)" xlink:href="#ab"/><use transform="matrix(0.010850694444444444,0,0,0.010850694444444444,41.59071180555556,0)" xlink:href="#ac"/><use transform="matrix(0.010850694444444444,0,0,0.010850694444444444,53.22265625,0)" xlink:href="#W"/><use transform="matrix(0.010850694444444444,0,0,0.010850694444444444,64.99565972222223,0)" xlink:href="#X"/><use transform="matrix(0.010850694444444444,0,0,0.010850694444444444,76.45399305555556,0)" xlink:href="#X"/><use transform="matrix(0.010850694444444444,0,0,0.010850694444444444,87.91232638888889,0)" xlink:href="#W"/><use transform="matrix(0.010850694444444444,0,0,0.010850694444444444,99.68532986111111,0)" xlink:href="#ad"/></g><path d="M524 20C238 18 95-240 95-550c0-307 146-552 431-552 128 0 229 43 303 129l8-109h170V416H822v-516C747-20 648 20 524 20zm48-970c-208 0-292 182-292 421 0 219 92 398 290 398 110 0 194-49 252-146v-530c-59-95-142-143-250-143" id="ae"/><path d="M491 20c-241-1-355-148-355-398v-704h185v699c0 164 67 246 200 246 141 0 235-53 282-158v-787h185V0H812l-4-107C736-22 630 20 491 20" id="af"/><path d="M456 20C285 20 205-92 206-268v-671H9v-143h197v-262h185v262h202v143H391v671c-9 125 92 149 207 118V0c-49 13-96 20-142 20" id="ag"/><g id="g"><use transform="matrix(0.010850694444444444,0,0,0.010850694444444444,0,0)" xlink:href="#Z"/><use transform="matrix(0.010850694444444444,0,0,0.010850694444444444,13.899739583333332,0)" xlink:href="#Q"/><use transform="matrix(0.010850694444444444,0,0,0.010850694444444444,25.987413194444443,0)" xlink:href="#aa"/><use transform="matrix(0.010850694444444444,0,0,0.010850694444444444,33.30078125,0)" xlink:href="#ae"/><use transform="matrix(0.010850694444444444,0,0,0.010850694444444444,45.93098958333333,0)" xlink:href="#af"/><use transform="matrix(0.010850694444444444,0,0,0.010850694444444444,58.18142361111111,0)" xlink:href="#W"/><use transform="matrix(0.010850694444444444,0,0,0.010850694444444444,69.95442708333333,0)" xlink:href="#ag"/></g><path d="M1160-420C1159-145 963 0 674 0H169v-1456h476c294-1 476 112 476 388 0 153-99 253-216 302 146 38 255 167 255 346zM678-157c171 2 289-95 289-261 0-175-95-263-286-263H361v524h317zm250-912c-2-172-104-229-283-229H361v463h290c157 3 278-84 277-234" id="ah"/><path d="M521 20C240 20 96-239 96-550c0-303 147-552 427-552 132 0 235 47 309 140l9-120h169V-26c4 277-183 454-459 452-165-1-334-81-400-187l96-111c79 98 176 147 291 147 180 1 288-109 286-290v-93C750-23 649 20 521 20zm48-965c-209 0-287 178-287 416 0 217 86 392 285 392 117 0 202-53 257-159v-494c-57-103-142-155-255-155" id="ai"/><path d="M494-271l252-811h198L509 167C425 381 299 474 84 421V271c167 16 242-37 283-173l41-110L22-1082h202" id="aj"/><g id="h"><use transform="matrix(0.010850694444444444,0,0,0.010850694444444444,0,0)" xlink:href="#ah"/><use transform="matrix(0.010850694444444444,0,0,0.010850694444444444,13.834635416666666,0)" xlink:href="#U"/><use transform="matrix(0.010850694444444444,0,0,0.010850694444444444,19.227430555555554,0)" xlink:href="#ai"/><use transform="matrix(0.010850694444444444,0,0,0.010850694444444444,31.69487847222222,0)" xlink:href="#ae"/><use transform="matrix(0.010850694444444444,0,0,0.010850694444444444,44.32508680555556,0)" xlink:href="#af"/><use transform="matrix(0.010850694444444444,0,0,0.010850694444444444,56.57552083333333,0)" xlink:href="#W"/><use transform="matrix(0.010850694444444444,0,0,0.010850694444444444,68.34852430555556,0)" xlink:href="#aa"/><use transform="matrix(0.010850694444444444,0,0,0.010850694444444444,76.06336805555556,0)" xlink:href="#aj"/></g><path d="M158 418v-1536h174v179h20c37-59 106-193 324-193 279 0 474 222 474 576 0 356-194 580-473 580-213 0-288-135-325-197h-14v591H158zm492-555c209 0 317-186 317-421 0-232-105-413-317-413-206 0-314 166-314 413 0 249 111 421 314 421" id="ak"/><path d="M158 0v-1118h174v172h12c41-113 157-188 290-188 26 0 70 2 91 3v181c-11-2-60-10-108-10-161 0-279 109-279 260V0H158" id="al"/><path d="M613 24c-304 0-509-231-509-576 0-350 205-580 509-580 305 0 511 230 511 580 0 345-206 576-511 576zm0-161c226 0 329-195 329-415 0-222-103-419-329-419-223 0-326 196-326 419 0 220 103 415 326 415" id="am"/><path d="M577 24c-279 0-473-224-473-580 0-354 195-576 474-576 218 0 287 134 324 193h14v-551h180V0H922v-173h-20C865-111 790 24 577 24zm27-161c203 0 314-172 314-421 0-247-108-413-314-413-212 0-317 181-317 413 0 235 108 421 317 421" id="an"/><path d="M537 14c-226 0-379-139-379-422v-710h180v695c0 172 97 275 253 275 160 0 281-109 281-300v-670h181V0H879v-209C806-46 684 14 537 14" id="ao"/><path d="M613 24c-304 0-509-231-509-576 0-350 205-580 509-580 216 0 392 114 453 309l-173 49c-33-115-133-197-280-197-223 0-326 196-326 419 0 220 103 415 326 415 150 0 252-85 285-206l172 49C1010-95 832 24 613 24" id="ap"/><path d="M598-1118v154H368v674c0 100 37 144 132 144 23 0 62-6 92-12L629-6c-37 13-88 20-134 20-193 0-307-107-307-290v-688H20v-154h168v-266h180v266h230" id="aq"/><path d="M158 0v-1118h180V0H158zm91-1301c-68 0-125-53-125-119s57-119 125-119c69 0 126 53 126 119s-57 119-126 119" id="ar"/><path d="M338-670V0H158v-1118h173l1 207c72-158 192-221 342-221 226 0 378 139 378 422V0H872v-695c0-172-96-275-252-275-161 0-282 109-282 300" id="as"/><g id="i"><use transform="matrix(0.010850694444444444,0,0,0.010850694444444444,0,0)" xlink:href="#ak"/><use transform="matrix(0.010850694444444444,0,0,0.010850694444444444,13.606770833333332,0)" xlink:href="#al"/><use transform="matrix(0.010850694444444444,0,0,0.010850694444444444,21.603732638888886,0)" xlink:href="#am"/><use transform="matrix(0.010850694444444444,0,0,0.010850694444444444,34.928385416666664,0)" xlink:href="#an"/><use transform="matrix(0.010850694444444444,0,0,0.010850694444444444,48.53515625,0)" xlink:href="#ao"/><use transform="matrix(0.010850694444444444,0,0,0.010850694444444444,61.67534722222222,0)" xlink:href="#ap"/><use transform="matrix(0.010850694444444444,0,0,0.010850694444444444,74.37065972222223,0)" xlink:href="#aq"/><use transform="matrix(0.010850694444444444,0,0,0.010850694444444444,81.640625,0)" xlink:href="#ar"/><use transform="matrix(0.010850694444444444,0,0,0.010850694444444444,87.02256944444444,0)" xlink:href="#am"/><use transform="matrix(0.010850694444444444,0,0,0.010850694444444444,100.34722222222221,0)" xlink:href="#as"/></g><path d="M677 24c-213 0-288-135-325-197h-20V0H158v-1490h180v551h14c37-59 106-193 324-193 279 0 474 222 474 576 0 356-194 580-473 580zm-27-161c209 0 317-186 317-421 0-232-105-413-317-413-206 0-314 166-314 413 0 249 111 421 314 421" id="at"/><path d="M934 0v166H0V0h934" id="au"/><path d="M157-1118h181V80c1 225-123 350-364 338V252c126 9 184-48 183-172v-1198zm91-183c-68 0-125-53-125-119s57-119 125-119c69 0 126 53 126 119s-57 119-126 119" id="av"/><path d="M471 26C259 26 90-98 90-318c0-256 228-303 435-329 202-27 287-16 287-108 0-139-79-219-234-219-161 0-248 86-283 164l-173-57c86-203 278-265 451-265 150 0 419 46 419 395V0H815v-152h-12C765-73 660 26 471 26zm31-159c199 0 310-134 310-271v-155c-30 35-226 55-295 64-131 17-246 59-246 186 0 116 97 176 231 176" id="aw"/><path d="M158 0v-1490h180v865h22l478-493h223L593-638 1096 0H865L456-523 338-412V0H158" id="ax"/><path d="M158 0v-1118h175l1 205c55-151 181-225 313-225 147 0 245 90 285 228 53-141 190-228 352-228 194 0 352 125 352 384V0h-181v-749c0-161-105-225-225-225-151 0-243 103-243 244V0H807v-767c0-124-93-207-219-207-131 0-250 92-250 270V0H158" id="ay"/><g id="j"><use transform="matrix(0.010850694444444444,0,0,0.010850694444444444,0,0)" xlink:href="#an"/><use transform="matrix(0.010850694444444444,0,0,0.010850694444444444,13.606770833333332,0)" xlink:href="#at"/><use transform="matrix(0.010850694444444444,0,0,0.010850694444444444,27.213541666666664,0)" xlink:href="#aq"/><use transform="matrix(0.010850694444444444,0,0,0.010850694444444444,34.48350694444444,0)" xlink:href="#au"/><use transform="matrix(0.010850694444444444,0,0,0.010850694444444444,45.36675347222221,0)" xlink:href="#as"/><use transform="matrix(0.010850694444444444,0,0,0.010850694444444444,58.496093749999986,0)" xlink:href="#av"/><use transform="matrix(0.010850694444444444,0,0,0.010850694444444444,63.878038194444436,0)" xlink:href="#aw"/><use transform="matrix(0.010850694444444444,0,0,0.010850694444444444,76.35633680555554,0)" xlink:href="#ax"/><use transform="matrix(0.010850694444444444,0,0,0.010850694444444444,88.5525173611111,0)" xlink:href="#ax"/><use transform="matrix(0.010850694444444444,0,0,0.010850694444444444,100.74869791666666,0)" xlink:href="#aw"/><use transform="matrix(0.010850694444444444,0,0,0.010850694444444444,113.22699652777777,0)" xlink:href="#ay"/></g><path d="M218-607c0-325 108-727 258-974h175c-155 315-250 682-250 974 0 265 78 531 250 886H476C306-10 218-315 218-607" id="az"/><path d="M538 24C308 24 148-78 108-271l171-41c32 123 123 178 257 178 156 0 256-77 256-169 0-77-54-128-164-154l-186-44c-203-48-300-148-300-305 0-192 176-326 414-326 230 0 351 112 402 269l-163 42c-31-80-94-158-238-158-133 0-233 69-233 162 0 83 57 129 188 160l169 40c203 48 298 149 298 302 0 196-179 339-441 339" id="aA"/><path d="M611 442c-248 0-391-105-460-228l146-94c47 65 117 165 314 165 178 0 307-82 307-266v-224h-17C863-141 792-18 576-18c-268 0-472-195-472-546 0-346 197-568 476-568 216 0 288 133 326 193h17v-179h175V29c0 289-215 413-487 413zm-5-620c203 0 314-146 314-390 0-237-108-403-314-403-213 0-319 180-319 403 0 230 109 390 319 390" id="aB"/><path d="M96 279C273-86 346-350 346-607c0-292-95-659-250-974h175c150 246 258 650 258 974 0 297-91 602-258 886H96" id="aC"/><g id="k"><use transform="matrix(0.010850694444444444,0,0,0.010850694444444444,0,0)" xlink:href="#az"/><use transform="matrix(0.010850694444444444,0,0,0.010850694444444444,8.10546875,0)" xlink:href="#aA"/><use transform="matrix(0.010850694444444444,0,0,0.010850694444444444,19.835069444444443,0)" xlink:href="#aq"/><use transform="matrix(0.010850694444444444,0,0,0.010850694444444444,27.213541666666664,0)" xlink:href="#aw"/><use transform="matrix(0.010850694444444444,0,0,0.010850694444444444,39.69184027777777,0)" xlink:href="#aB"/><use transform="matrix(0.010850694444444444,0,0,0.010850694444444444,53.320312499999986,0)" xlink:href="#ar"/><use transform="matrix(0.010850694444444444,0,0,0.010850694444444444,58.702256944444436,0)" xlink:href="#as"/><use transform="matrix(0.010850694444444444,0,0,0.010850694444444444,71.83159722222221,0)" xlink:href="#aB"/><use transform="matrix(0.010850694444444444,0,0,0.010850694444444444,85.46006944444443,0)" xlink:href="#aC"/></g><path d="M338-670V0H158v-1490h180v566c73-149 190-208 336-208 226 0 379 139 379 422V0H872v-695c0-172-96-275-252-275-161 0-282 109-282 300" id="aD"/><path d="M628 24c-324 0-524-230-524-574 0-343 198-582 503-582 237 0 487 146 487 559v75H286c9 234 145 362 343 362 132 0 231-58 273-172l174 48C1024-91 857 24 628 24zM287-650h624c-17-190-120-322-304-322-192 0-309 151-320 322" id="aE"/><g id="l"><use transform="matrix(0.010850694444444444,0,0,0.010850694444444444,0,0)" xlink:href="#ap"/><use transform="matrix(0.010850694444444444,0,0,0.010850694444444444,12.6953125,0)" xlink:href="#al"/><use transform="matrix(0.010850694444444444,0,0,0.010850694444444444,21.061197916666664,0)" xlink:href="#aw"/><use transform="matrix(0.010850694444444444,0,0,0.010850694444444444,33.53949652777777,0)" xlink:href="#aA"/><use transform="matrix(0.010850694444444444,0,0,0.010850694444444444,45.26909722222221,0)" xlink:href="#aD"/><use transform="matrix(0.010850694444444444,0,0,0.010850694444444444,58.409288194444436,0)" xlink:href="#aE"/><use transform="matrix(0.010850694444444444,0,0,0.010850694444444444,71.3650173611111,0)" xlink:href="#aA"/></g><path d="M409 0L70-1118h191c89 329 165 560 243 925 75-353 154-601 240-925h192c85 325 161 564 235 922 77-354 157-598 244-922h191L1267 0h-179c-86-307-176-590-250-913C763-588 675-308 588 0H409" id="aF"/><g id="m"><use transform="matrix(0.010850694444444444,0,0,0.010850694444444444,0,0)" xlink:href="#az"/><use transform="matrix(0.010850694444444444,0,0,0.010850694444444444,8.10546875,0)" xlink:href="#al"/><use transform="matrix(0.010850694444444444,0,0,0.010850694444444444,16.471354166666664,0)" xlink:href="#aw"/><use transform="matrix(0.010850694444444444,0,0,0.010850694444444444,28.949652777777775,0)" xlink:href="#aF"/><use transform="matrix(0.010850694444444444,0,0,0.010850694444444444,47.135416666666664,0)" xlink:href="#aC"/></g><path d="M362-157h690V0H169v-1456h193v1299" id="aG"/><path d="M442-501L326-380V0H141v-1536h185v929c135-169 291-317 436-475h225L566-630 1036 0H819" id="aH"/><g id="n"><use transform="matrix(0.010850694444444444,0,0,0.010850694444444444,0,0)" xlink:href="#aG"/><use transform="matrix(0.010850694444444444,0,0,0.010850694444444444,11.957465277777777,0)" xlink:href="#ab"/><use transform="matrix(0.010850694444444444,0,0,0.010850694444444444,24.63107638888889,0)" xlink:href="#ab"/><use transform="matrix(0.010850694444444444,0,0,0.010850694444444444,37.3046875,0)" xlink:href="#aH"/><use transform="matrix(0.010850694444444444,0,0,0.010850694444444444,48.35069444444444,0)" xlink:href="#W"/><use transform="matrix(0.010850694444444444,0,0,0.010850694444444444,60.123697916666664,0)" xlink:href="#aa"/></g><linearGradient gradientUnits="userSpaceOnUse" id="o" x1="288.35" y1="1319.5" x2="350.39" y2="1373.41"><stop offset="0%" stop-color="#5a9fd4"/><stop offset="100%" stop-color="#306998"/></linearGradient><linearGradient gradientUnits="userSpaceOnUse" id="p" x1="358.78" y1="1417.86" x2="336.6" y2="1386.22"><stop offset="0%" stop-color="#ffd43b"/><stop offset="100%" stop-color="#ffe873"/></linearGradient><radialGradient gradientUnits="userSpaceOnUse" id="q" fx="344.64" fy="1447.73" cx="344.64" cy="1447.73" r="22.81"><stop offset="0%" stop-color="#b8b8b8" stop-opacity=".5"/><stop offset="100%" stop-color="#7f7f7f" stop-opacity="0"/></radialGradient><path d="M180 0v-1490h510c348 0 508 209 508 474 0 266-160 477-507 477H370V0H180zm190-706h312c236 0 327-133 327-310 0-176-91-307-329-307H370v617" id="aI"/><path d="M140 405l46-156c120 36 205 19 263-150l32-93L54-1118h197c107 313 237 620 324 950 87-331 219-637 326-950h196L606 167c-68 178-176 259-334 259-64 0-113-12-132-21" id="aJ"/><g id="r"><use transform="matrix(0.010850694444444444,0,0,0.010850694444444444,0,0)" xlink:href="#aI"/><use transform="matrix(0.010850694444444444,0,0,0.010850694444444444,14.192708333333332,0)" xlink:href="#aJ"/><use transform="matrix(0.010850694444444444,0,0,0.010850694444444444,27.00737847222222,0)" xlink:href="#aq"/><use transform="matrix(0.010850694444444444,0,0,0.010850694444444444,34.27734375,0)" xlink:href="#aD"/><use transform="matrix(0.010850694444444444,0,0,0.010850694444444444,47.41753472222222,0)" xlink:href="#am"/><use transform="matrix(0.010850694444444444,0,0,0.010850694444444444,60.7421875,0)" xlink:href="#as"/></g><g id="s"><use transform="matrix(0.010850694444444444,0,0,0.010850694444444444,0,0)" xlink:href="#az"/><use transform="matrix(0.010850694444444444,0,0,0.010850694444444444,8.10546875,0)" xlink:href="#aI"/><use transform="matrix(0.010850694444444444,0,0,0.010850694444444444,22.298177083333332,0)" xlink:href="#aw"/><use transform="matrix(0.010850694444444444,0,0,0.010850694444444444,34.77647569444444,0)" xlink:href="#as"/><use transform="matrix(0.010850694444444444,0,0,0.010850694444444444,47.90581597222222,0)" xlink:href="#an"/><use transform="matrix(0.010850694444444444,0,0,0.010850694444444444,61.51258680555555,0)" xlink:href="#aw"/><use transform="matrix(0.010850694444444444,0,0,0.010850694444444444,73.99088541666667,0)" xlink:href="#aA"/><use transform="matrix(0.010850694444444444,0,0,0.010850694444444444,85.72048611111111,0)" xlink:href="#aC"/></g><path d="M783 20c-382 0-661-292-661-764 0-473 279-766 661-766 302 0 548 182 601 489h-190c-42-204-217-313-411-313-268 0-476 208-476 590 0 381 209 588 476 588 195 0 369-110 411-313h190c-52 303-296 489-601 489" id="aK"/><path d="M180 0v-1490h190c0 262 1 526-3 784 217-279 467-523 702-784h249L716-845 1319 0h-225L585-716 370-489V0H180" id="aL"/><path d="M52 0l541-1490h220L1361 0h-200l-149-416H398L254 0H52zm404-582h497c-103-290-145-390-251-756-108 377-145 460-246 756" id="aM"/><path d="M180 0v-1490h224l606 953c40 63 108 177 176 312-27-437-7-821-13-1265h190V0h-226C860-448 622-778 356-1262c27 476 11 792 15 1262H180" id="aN"/><g id="t"><use transform="matrix(0.010850694444444444,0,0,0.010850694444444444,0,0)" xlink:href="#aK"/><use transform="matrix(0.010850694444444444,0,0,0.010850694444444444,16.23263888888889,0)" xlink:href="#aL"/><use transform="matrix(0.010850694444444444,0,0,0.010850694444444444,31.163194444444443,0)" xlink:href="#aM"/><use transform="matrix(0.010850694444444444,0,0,0.010850694444444444,46.49522569444444,0)" xlink:href="#aN"/></g><path d="M370-1490V0H180v-1490h190" id="aO"/><g id="u"><use transform="matrix(0.010850694444444444,0,0,0.010850694444444444,0,0)" xlink:href="#aM"/><use transform="matrix(0.010850694444444444,0,0,0.010850694444444444,15.33203125,0)" xlink:href="#aI"/><use transform="matrix(0.010850694444444444,0,0,0.010850694444444444,29.524739583333332,0)" xlink:href="#aO"/></g><path d="M645 0H180v-1490h484c435 0 692 280 692 742 0 466-257 748-711 748zM370-168h263c363 0 539-218 539-580 0-358-176-574-521-574H370v1154" id="aP"/><g id="v"><use transform="matrix(0.013020833333333334,0,0,0.013020833333333334,0,0)" xlink:href="#aP"/><use transform="matrix(0.013020833333333334,0,0,0.013020833333333334,19.244791666666668,0)" xlink:href="#aw"/><use transform="matrix(0.013020833333333334,0,0,0.013020833333333334,34.21875,0)" xlink:href="#aq"/><use transform="matrix(0.013020833333333334,0,0,0.013020833333333334,43.07291666666667,0)" xlink:href="#aw"/></g><path d="M458 0L52-1490h194c108 439 233 855 324 1313 92-459 221-873 331-1313h216c110 438 234 854 330 1307 92-455 216-869 323-1307h196L1558 0h-221l-256-944c-26-95-50-200-73-331-22 122-44 223-73 331L680 0H458" id="aQ"/><g id="w"><use transform="matrix(0.013020833333333334,0,0,0.013020833333333334,0,0)" xlink:href="#aQ"/><use transform="matrix(0.013020833333333334,0,0,0.013020833333333334,24.921875,0)" xlink:href="#aw"/><use transform="matrix(0.013020833333333334,0,0,0.013020833333333334,39.895833333333336,0)" xlink:href="#al"/><use transform="matrix(0.013020833333333334,0,0,0.013020833333333334,49.4921875,0)" xlink:href="#aE"/><use transform="matrix(0.013020833333333334,0,0,0.013020833333333334,65.0390625,0)" xlink:href="#aD"/><use transform="matrix(0.013020833333333334,0,0,0.013020833333333334,80.80729166666667,0)" xlink:href="#am"/><use transform="matrix(0.013020833333333334,0,0,0.013020833333333334,96.796875,0)" xlink:href="#ao"/><use transform="matrix(0.013020833333333334,0,0,0.013020833333333334,112.56510416666667,0)" xlink:href="#aA"/><use transform="matrix(0.013020833333333334,0,0,0.013020833333333334,126.640625,0)" xlink:href="#aE"/></g><path d="M678-1118v154H420V0H240v-964H20v-154h220v-149c0-194 155-293 318-293 85 0 141 18 168 30l-50 154c-19-6-47-17-97-17-111 0-159 58-159 166v109h258" id="aR"/><path d="M338-1490V0H158v-1490h180" id="aS"/><g id="x"><use transform="matrix(0.013020833333333334,0,0,0.013020833333333334,0,0)" xlink:href="#aQ"/><use transform="matrix(0.013020833333333334,0,0,0.013020833333333334,24.921875,0)" xlink:href="#am"/><use transform="matrix(0.013020833333333334,0,0,0.013020833333333334,40.911458333333336,0)" xlink:href="#al"/><use transform="matrix(0.013020833333333334,0,0,0.013020833333333334,51.3671875,0)" xlink:href="#ax"/><use transform="matrix(0.013020833333333334,0,0,0.013020833333333334,66.00260416666667,0)" xlink:href="#aR"/><use transform="matrix(0.013020833333333334,0,0,0.013020833333333334,75.87239583333334,0)" xlink:href="#aS"/><use transform="matrix(0.013020833333333334,0,0,0.013020833333333334,82.33072916666667,0)" xlink:href="#am"/><use transform="matrix(0.013020833333333334,0,0,0.013020833333333334,97.83854166666667,0)" xlink:href="#aF"/></g><path d="M784 20c-382 0-662-292-662-764 0-473 280-766 662-766s660 293 660 766c0 472-278 764-660 764zm0-176c266 0 475-207 475-588 0-383-209-590-475-590-268 0-477 208-477 590 0 380 209 588 477 588" id="aT"/><g id="y"><use transform="matrix(0.013020833333333334,0,0,0.013020833333333334,0,0)" xlink:href="#aT"/><use transform="matrix(0.013020833333333334,0,0,0.013020833333333334,20.390625,0)" xlink:href="#al"/><use transform="matrix(0.013020833333333334,0,0,0.013020833333333334,29.986979166666668,0)" xlink:href="#ap"/><use transform="matrix(0.013020833333333334,0,0,0.013020833333333334,45.22135416666667,0)" xlink:href="#aD"/><use transform="matrix(0.013020833333333334,0,0,0.013020833333333334,60.98958333333335,0)" xlink:href="#aE"/><use transform="matrix(0.013020833333333334,0,0,0.013020833333333334,76.53645833333334,0)" xlink:href="#aA"/><use transform="matrix(0.013020833333333334,0,0,0.013020833333333334,90.61197916666667,0)" xlink:href="#aq"/><use transform="matrix(0.013020833333333334,0,0,0.013020833333333334,99.3359375,0)" xlink:href="#al"/><use transform="matrix(0.013020833333333334,0,0,0.013020833333333334,109.375,0)" xlink:href="#aw"/><use transform="matrix(0.013020833333333334,0,0,0.013020833333333334,124.34895833333334,0)" xlink:href="#aq"/><use transform="matrix(0.013020833333333334,0,0,0.013020833333333334,133.07291666666666,0)" xlink:href="#ar"/><use transform="matrix(0.013020833333333334,0,0,0.013020833333333334,139.53125,0)" xlink:href="#am"/><use transform="matrix(0.013020833333333334,0,0,0.013020833333333334,155.52083333333334,0)" xlink:href="#as"/></g><path d="M180 0v-1490h190v1322h690V0H180" id="aU"/><g id="z"><use transform="matrix(0.013020833333333334,0,0,0.013020833333333334,0,0)" xlink:href="#aU"/><use transform="matrix(0.013020833333333334,0,0,0.013020833333333334,15.078125,0)" xlink:href="#aw"/><use transform="matrix(0.013020833333333334,0,0,0.013020833333333334,30.052083333333336,0)" xlink:href="#ax"/><use transform="matrix(0.013020833333333334,0,0,0.013020833333333334,44.08854166666667,0)" xlink:href="#aE"/></g><path d="M657 26c-323 0-524-166-541-416h195c15 169 171 246 346 246 202 0 356-106 356-265 5-203-294-238-475-293-239-73-380-191-380-389 0-252 224-419 512-419 294 0 499 171 508 396H992c-17-145-151-228-328-228-193 0-321 102-321 242 0 156 175 211 284 241l149 41c160 44 422 134 422 412 0 244-197 432-541 432" id="aV"/><g id="A"><use transform="matrix(0.010850694444444444,0,0,0.010850694444444444,0,0)" xlink:href="#aV"/><use transform="matrix(0.010850694444444444,0,0,0.010850694444444444,14.2578125,0)" xlink:href="#aq"/><use transform="matrix(0.010850694444444444,0,0,0.010850694444444444,21.63628472222222,0)" xlink:href="#aw"/><use transform="matrix(0.010850694444444444,0,0,0.010850694444444444,34.11458333333333,0)" xlink:href="#aq"/><use transform="matrix(0.010850694444444444,0,0,0.010850694444444444,41.38454861111111,0)" xlink:href="#ar"/><use transform="matrix(0.010850694444444444,0,0,0.010850694444444444,46.76649305555556,0)" xlink:href="#ap"/></g><g id="B"><use transform="matrix(0.010850694444444444,0,0,0.010850694444444444,0,0)" xlink:href="#aK"/><use transform="matrix(0.010850694444444444,0,0,0.010850694444444444,16.23263888888889,0)" xlink:href="#am"/><use transform="matrix(0.010850694444444444,0,0,0.010850694444444444,29.557291666666664,0)" xlink:href="#as"/><use transform="matrix(0.010850694444444444,0,0,0.010850694444444444,42.68663194444444,0)" xlink:href="#as"/><use transform="matrix(0.010850694444444444,0,0,0.010850694444444444,55.81597222222222,0)" xlink:href="#aE"/><use transform="matrix(0.010850694444444444,0,0,0.010850694444444444,68.77170138888889,0)" xlink:href="#ap"/><use transform="matrix(0.010850694444444444,0,0,0.010850694444444444,81.46701388888889,0)" xlink:href="#aq"/><use transform="matrix(0.010850694444444444,0,0,0.010850694444444444,88.73697916666666,0)" xlink:href="#ar"/><use transform="matrix(0.010850694444444444,0,0,0.010850694444444444,94.11892361111111,0)" xlink:href="#am"/><use transform="matrix(0.010850694444444444,0,0,0.010850694444444444,107.44357638888887,0)" xlink:href="#as"/></g><g id="C"><use transform="matrix(0.010850694444444444,0,0,0.010850694444444444,0,0)" xlink:href="#aP"/><use transform="matrix(0.010850694444444444,0,0,0.010850694444444444,16.03732638888889,0)" xlink:href="#aJ"/><use transform="matrix(0.010850694444444444,0,0,0.010850694444444444,28.526475694444443,0)" xlink:href="#as"/><use transform="matrix(0.010850694444444444,0,0,0.010850694444444444,41.65581597222222,0)" xlink:href="#aw"/><use transform="matrix(0.010850694444444444,0,0,0.010850694444444444,54.13411458333333,0)" xlink:href="#ay"/><use transform="matrix(0.010850694444444444,0,0,0.010850694444444444,73.60026041666666,0)" xlink:href="#ar"/><use transform="matrix(0.010850694444444444,0,0,0.010850694444444444,78.9822048611111,0)" xlink:href="#ap"/></g><g id="D"><use transform="matrix(0.010850694444444444,0,0,0.010850694444444444,0,0)" xlink:href="#aK"/><use transform="matrix(0.010850694444444444,0,0,0.010850694444444444,16.23263888888889,0)" xlink:href="#am"/><use transform="matrix(0.010850694444444444,0,0,0.010850694444444444,29.557291666666664,0)" xlink:href="#as"/><use transform="matrix(0.010850694444444444,0,0,0.010850694444444444,42.68663194444444,0)" xlink:href="#as"/><use transform="matrix(0.010850694444444444,0,0,0.010850694444444444,55.81597222222222,0)" xlink:href="#aE"/><use transform="matrix(0.010850694444444444,0,0,0.010850694444444444,68.77170138888889,0)" xlink:href="#ap"/><use transform="matrix(0.010850694444444444,0,0,0.010850694444444444,81.46701388888889,0)" xlink:href="#aq"/><use transform="matrix(0.010850694444444444,0,0,0.010850694444444444,88.73697916666666,0)" xlink:href="#ar"/><use transform="matrix(0.010850694444444444,0,0,0.010850694444444444,94.11892361111111,0)" xlink:href="#am"/><use transform="matrix(0.010850694444444444,0,0,0.010850694444444444,107.44357638888887,0)" xlink:href="#as"/></g><path d="M98-1322v-168h1126v168H757V0H567v-1322H98" id="aW"/><g id="E"><use transform="matrix(0.010850694444444444,0,0,0.010850694444444444,0,0)" xlink:href="#aW"/><use transform="matrix(0.010850694444444444,0,0,0.010850694444444444,12.71701388888889,0)" xlink:href="#aw"/><use transform="matrix(0.010850694444444444,0,0,0.010850694444444444,25.1953125,0)" xlink:href="#at"/><use transform="matrix(0.010850694444444444,0,0,0.010850694444444444,38.80208333333333,0)" xlink:href="#aS"/><use transform="matrix(0.010850694444444444,0,0,0.010850694444444444,44.18402777777777,0)" xlink:href="#aE"/><use transform="matrix(0.010850694444444444,0,0,0.010850694444444444,57.35677083333332,0)" xlink:href="#aw"/><use transform="matrix(0.010850694444444444,0,0,0.010850694444444444,69.83506944444443,0)" xlink:href="#ao"/></g><g id="F"><use transform="matrix(0.010850694444444444,0,0,0.010850694444444444,0,0)" xlink:href="#aI"/><use transform="matrix(0.010850694444444444,0,0,0.010850694444444444,14.192708333333332,0)" xlink:href="#ao"/><use transform="matrix(0.010850694444444444,0,0,0.010850694444444444,27.332899305555554,0)" xlink:href="#at"/><use transform="matrix(0.010850694444444444,0,0,0.010850694444444444,40.939670138888886,0)" xlink:href="#aS"/><use transform="matrix(0.010850694444444444,0,0,0.010850694444444444,46.32161458333333,0)" xlink:href="#ar"/><use transform="matrix(0.010850694444444444,0,0,0.010850694444444444,51.70355902777778,0)" xlink:href="#ap"/></g><path d="M135 0v-1490h997v253H440v360h640v249H440v375h694V0H135" id="aX"/><path d="M65 0l393-574-370-544h210c88 136 192 297 267 435 67-142 176-302 264-435h206L661-564 1053 0H844c-94-144-206-310-287-458C484-308 366-142 273 0H65" id="aY"/><g id="G"><use transform="matrix(0.010850694444444444,0,0,0.010850694444444444,0,0)" xlink:href="#aX"/><use transform="matrix(0.010850694444444444,0,0,0.010850694444444444,13.49826388888889,0)" xlink:href="#aY"/><use transform="matrix(0.010850694444444444,0,0,0.010850694444444444,26.06336805555556,0)" xlink:href="#aq"/><use transform="matrix(0.010850694444444444,0,0,0.010850694444444444,33.333333333333336,0)" xlink:href="#al"/><use transform="matrix(0.010850694444444444,0,0,0.010850694444444444,41.69921875,0)" xlink:href="#aw"/><use transform="matrix(0.010850694444444444,0,0,0.010850694444444444,54.17751736111112,0)" xlink:href="#ap"/><use transform="matrix(0.010850694444444444,0,0,0.010850694444444444,66.87282986111111,0)" xlink:href="#aq"/></g><path d="M75-1237v-253h1217v253H837V0H531v-1237H75" id="aZ"/><g id="H"><use transform="matrix(0.010850694444444444,0,0,0.010850694444444444,0,0)" xlink:href="#aZ"/><use transform="matrix(0.010850694444444444,0,0,0.010850694444444444,14.832899305555555,0)" xlink:href="#al"/><use transform="matrix(0.010850694444444444,0,0,0.010850694444444444,23.19878472222222,0)" xlink:href="#aw"/><use transform="matrix(0.010850694444444444,0,0,0.010850694444444444,35.67708333333333,0)" xlink:href="#as"/><use transform="matrix(0.010850694444444444,0,0,0.010850694444444444,48.80642361111111,0)" xlink:href="#aA"/><use transform="matrix(0.010850694444444444,0,0,0.010850694444444444,60.53602430555555,0)" xlink:href="#aR"/><use transform="matrix(0.010850694444444444,0,0,0.010850694444444444,68.10980902777777,0)" xlink:href="#am"/><use transform="matrix(0.010850694444444444,0,0,0.010850694444444444,81.43446180555554,0)" xlink:href="#al"/><use transform="matrix(0.010850694444444444,0,0,0.010850694444444444,90.14756944444444,0)" xlink:href="#ay"/></g><path d="M580 20c-295 0-476-179-476-409 0-189 123-290 294-416-104-125-173-226-173-362 0-197 144-337 365-337 224 0 362 144 362 321 0 185-174 312-306 405l319 387c38-75 61-165 61-267h173c0 208-62 332-120 406L1287 0h-217L967-124C868-27 716 20 580 20zm279-273L507-675l-51 38c-123 91-167 162-167 254 0 147 113 246 278 246 107 0 210-41 292-116zM538-908l97-72c54-40 136-101 136-206 0-95-68-163-176-163-113 0-189 74-189 181 0 90 53 164 132 260" id="ba"/><use transform="matrix(0.010850694444444444,0,0,0.010850694444444444,0,0)" xlink:href="#ba" id="I"/><path d="M135 0v-1490h305v1237h643V0H135" id="bb"/><g id="J"><use transform="matrix(0.010850694444444444,0,0,0.010850694444444444,0,0)" xlink:href="#bb"/><use transform="matrix(0.010850694444444444,0,0,0.010850694444444444,12.565104166666666,0)" xlink:href="#am"/><use transform="matrix(0.010850694444444444,0,0,0.010850694444444444,26.106770833333332,0)" xlink:href="#aw"/><use transform="matrix(0.010850694444444444,0,0,0.010850694444444444,38.58506944444444,0)" xlink:href="#an"/></g><path d="M180 0v-1490h270l367 940c28 72 75 218 110 339 35-117 81-264 110-339l362-940h271V0h-187c2-448-5-837 7-1287-157 497-311 829-483 1287H842C666-458 514-784 354-1284c12 438 5 843 7 1284H180" id="bc"/><g id="K"><use transform="matrix(0.013020833333333334,0,0,0.013020833333333334,0,0)" xlink:href="#bc"/><use transform="matrix(0.013020833333333334,0,0,0.013020833333333334,24.088541666666668,0)" xlink:href="#am"/><use transform="matrix(0.013020833333333334,0,0,0.013020833333333334,40.078125,0)" xlink:href="#an"/><use transform="matrix(0.013020833333333334,0,0,0.013020833333333334,56.40625,0)" xlink:href="#aE"/><use transform="matrix(0.013020833333333334,0,0,0.013020833333333334,71.953125,0)" xlink:href="#aS"/><use transform="matrix(0.013020833333333334,0,0,0.013020833333333334,78.41145833333333,0)" xlink:href="#ar"/><use transform="matrix(0.013020833333333334,0,0,0.013020833333333334,84.86979166666666,0)" xlink:href="#as"/><use transform="matrix(0.013020833333333334,0,0,0.013020833333333334,100.62499999999999,0)" xlink:href="#aB"/></g></defs></g></svg>